<svg width="46" height="46" viewBox="0 0 46 46" fill="none" xmlns="http://www.w3.org/2000/svg">
<rect width="46" height="46" rx="10" fill="#002F57"/>
<path d="M24.8344 19.0251L17.0352 29.1384H21.2839L19.4863 36.7634L27.4935 26.3603H23.0814L24.8344 19.0251Z" stroke="white" stroke-width="0.8" stroke-miterlimit="10" stroke-linecap="round" stroke-linejoin="round"/>
<path d="M30.5163 17.5189C32.5677 19.5481 33.0092 22.7031 33.0092 24.4395C33.0098 25.2298 32.9186 26.0175 32.7376 26.7869L37.4167 27.8939C37.6781 26.7849 37.8164 25.6283 37.8164 24.4395C37.8164 16.1552 31.1007 9.43945 22.8164 9.43945C14.5321 9.43945 7.81641 16.1552 7.81641 24.4395C7.81641 25.6283 7.95474 26.7849 8.21614 27.8939L12.8952 26.7869C12.7142 26.0175 12.6231 25.2298 12.6236 24.4395C12.6236 18.8101 17.1871 14.2466 22.8164 14.2466C24.6438 14.2466 26.3588 14.7275 27.8419 15.5696M31.9826 15.8459L28.79 18.5639" stroke="white" stroke-width="0.8" stroke-miterlimit="10" stroke-linecap="round" stroke-linejoin="round"/>
</svg>
