<svg width="36" height="36" viewBox="0 0 36 36" fill="none" xmlns="http://www.w3.org/2000/svg">
<path d="M31.7794 2.59102H25.9358V1.47656C25.9358 1.24383 25.7466 1.05469 25.5139 1.05469H17.9672C17.7345 1.05469 17.5454 1.24383 17.5454 1.47656V2.59102H11.7017C10.7954 2.59102 10.0585 3.32789 10.0585 4.23422V9.95273C8.16286 10.0533 6.29747 10.8309 4.86099 12.2843C1.79747 15.383 1.8263 20.3963 4.92497 23.4591C5.95365 24.4765 7.21224 25.1768 8.58122 25.5129L8.06162 32.4689C8.01591 33.0799 8.23177 33.6741 8.66841 34.1416C9.14583 34.6528 9.81872 34.9453 10.5169 34.9453H10.5317C11.2348 34.9411 11.9105 34.6409 12.3851 34.1205C12.8169 33.6473 13.0257 33.0511 12.9729 32.4408L12.89 31.4754H31.7794C32.6858 31.4754 33.4226 30.7385 33.4226 29.8322V4.23422C33.4233 3.32789 32.6858 2.59102 31.7794 2.59102ZM18.3891 1.89844H25.092V3.99516H18.3891V1.89844ZM5.46146 12.877C6.84029 11.4827 8.65998 10.7845 10.4811 10.7845C12.2747 10.7845 14.0698 11.4623 15.443 12.8201C18.2105 15.5566 18.2365 20.0341 15.5 22.8016C14.1746 24.1425 12.4062 24.8864 10.5211 24.8977H10.4797C8.61005 24.8977 6.84943 24.1741 5.51841 22.8586C2.75091 20.1227 2.7249 15.6445 5.46146 12.877ZM17.2845 21.8595H22.7506V24.0138H15.4128C15.6519 23.8219 15.8811 23.6159 16.0997 23.3951C16.5666 22.9233 16.9611 22.4065 17.2845 21.8595ZM18.3533 17.2027H22.7506V19.357H18.233C18.3708 18.6469 18.4109 17.9212 18.3533 17.2027ZM16.3472 12.5459H22.7506V14.7002H17.7324C17.3916 13.9112 16.9237 13.1834 16.3472 12.5459ZM10.4797 25.7414H10.5261C10.8692 25.7393 11.2088 25.7154 11.5428 25.6704L11.6243 26.6175L9.34412 26.6309L9.41583 25.6704C9.76599 25.7168 10.1211 25.7414 10.4797 25.7414ZM11.7622 33.5517C11.4507 33.8934 10.9887 34.0988 10.5268 34.1016H10.5176C10.0592 34.1016 9.59935 33.9019 9.28576 33.5658C9.01154 33.2719 8.87583 32.9048 8.90326 32.5315L9.28083 27.4746L11.6968 27.4605L12.132 32.5125C12.1651 32.8859 12.0329 33.255 11.7622 33.5517ZM32.5796 29.8322C32.5796 30.273 32.221 30.6316 31.7801 30.6316H12.8176L12.376 25.5136C12.9811 25.3657 13.5663 25.1456 14.119 24.8583H23.1718C23.4045 24.8583 23.5936 24.6691 23.5936 24.4364V21.4383C23.5936 21.2055 23.4045 21.0164 23.1718 21.0164H17.7155C17.8322 20.7492 17.9335 20.4778 18.02 20.2022H23.1718C23.4045 20.2022 23.5936 20.013 23.5936 19.7803V16.7822C23.5936 16.5495 23.4045 16.3603 23.1718 16.3603H18.2394C18.1873 16.0861 18.1212 15.814 18.0404 15.5461H23.1718C23.4045 15.5461 23.5936 15.357 23.5936 15.1242V12.1261C23.5936 11.8934 23.4045 11.7042 23.1718 11.7042H15.4578C14.1275 10.6235 12.5258 10.0413 10.9022 9.95555V4.23422C10.9022 3.79336 11.2608 3.43477 11.7017 3.43477H17.5454V4.41703C17.5454 4.64977 17.7345 4.83891 17.9672 4.83891H25.5139C25.7466 4.83891 25.9358 4.64977 25.9358 4.41703V3.43477H31.7794C32.2203 3.43477 32.5789 3.79336 32.5789 4.23422V29.8322H32.5796ZM12.9336 6.41953C12.9336 6.1868 13.1227 5.99766 13.3554 5.99766H19.3904C19.6231 5.99766 19.8122 6.1868 19.8122 6.41953C19.8122 6.65227 19.6231 6.84141 19.3904 6.84141H13.3554C13.1227 6.84141 12.9336 6.65297 12.9336 6.41953ZM24.2996 8.45719C24.2996 8.68992 24.1104 8.87906 23.8777 8.87906H13.3554C13.1227 8.87906 12.9336 8.68992 12.9336 8.45719C12.9336 8.22445 13.1227 8.03531 13.3554 8.03531H23.877C23.9325 8.03522 23.9874 8.04606 24.0387 8.06722C24.0899 8.08838 24.1365 8.11944 24.1758 8.15863C24.215 8.19781 24.2462 8.24435 24.2674 8.29558C24.2886 8.34681 24.2996 8.40173 24.2996 8.45719ZM23.1725 25.6725H13.5945C13.3618 25.6725 13.1726 25.8616 13.1726 26.0944V29.0925C13.1726 29.3252 13.3618 29.5144 13.5945 29.5144H23.1725C23.4052 29.5144 23.5943 29.3252 23.5943 29.0925V26.0944C23.5943 25.8609 23.4052 25.6725 23.1725 25.6725ZM22.7506 28.6706H14.0164V26.5163H22.7506V28.6706ZM30.4245 25.9327C30.5035 26.0118 30.5479 26.119 30.5479 26.2308C30.5479 26.3426 30.5035 26.4498 30.4245 26.5289L27.4665 29.487C27.4274 29.5262 27.3809 29.5573 27.3297 29.5785C27.2786 29.5998 27.2237 29.6107 27.1683 29.6107C27.1129 29.6107 27.0581 29.5998 27.0069 29.5785C26.9558 29.5573 26.9093 29.5262 26.8702 29.487L25.6594 28.2762C25.5804 28.1971 25.536 28.0898 25.536 27.978C25.536 27.8662 25.5804 27.759 25.6594 27.6799C25.824 27.5154 26.0911 27.5154 26.2564 27.6799L27.169 28.5919L29.829 25.932C29.9928 25.7681 30.26 25.7681 30.4245 25.9327ZM30.4245 21.1029C30.5035 21.182 30.5479 21.2892 30.5479 21.401C30.5479 21.5128 30.5035 21.62 30.4245 21.6991L27.4665 24.6572C27.4273 24.6964 27.3809 24.7275 27.3297 24.7487C27.2786 24.7699 27.2237 24.7808 27.1683 24.7808C27.113 24.7808 27.0581 24.7699 27.007 24.7487C26.9558 24.7275 26.9093 24.6964 26.8702 24.6572L25.6594 23.4464C25.5804 23.3673 25.536 23.2601 25.536 23.1483C25.536 23.0365 25.5804 22.9293 25.6594 22.8502C25.824 22.6856 26.0911 22.6856 26.2564 22.8502L27.169 23.7621L29.829 21.1029C29.9928 20.9377 30.26 20.9384 30.4245 21.1029ZM30.4245 16.2731C30.5035 16.3522 30.5479 16.4595 30.5479 16.5712C30.5479 16.683 30.5035 16.7903 30.4245 16.8694L27.4665 19.8274C27.3877 19.9069 27.2801 19.9512 27.1683 19.9512C27.0565 19.9512 26.949 19.9069 26.8702 19.8274L25.6594 18.6166C25.4949 18.4521 25.4949 18.1849 25.6594 18.0197C25.824 17.8552 26.0911 17.8552 26.2564 18.0197L27.169 18.9323L29.829 16.2724C29.9928 16.1079 30.26 16.1079 30.4245 16.2731ZM30.4245 11.4427C30.5035 11.5218 30.5479 11.629 30.5479 11.7408C30.5479 11.8526 30.5035 11.9598 30.4245 12.0389L27.4665 14.997C27.4273 15.0361 27.3809 15.0672 27.3297 15.0885C27.2786 15.1097 27.2237 15.1206 27.1683 15.1206C27.113 15.1206 27.0581 15.1097 27.007 15.0885C26.9558 15.0672 26.9093 15.0361 26.8702 14.997L25.6594 13.7862C25.4949 13.6216 25.4949 13.3545 25.6594 13.1892C25.824 13.0247 26.0911 13.0247 26.2564 13.1892L27.169 14.1012L29.829 11.442C29.9928 11.2781 30.26 11.2781 30.4245 11.4427ZM14.5571 21.8693C15.6336 20.7809 16.2214 19.338 16.2129 17.8066C16.2045 16.2752 15.5998 14.8395 14.5107 13.7637C12.2635 11.5418 8.62693 11.5629 6.40505 13.8101C5.32857 14.8985 4.74076 16.3413 4.74919 17.8727C4.75763 19.4041 5.36232 20.8399 6.45146 21.9157C7.56662 23.0182 9.02419 23.5688 10.4811 23.5688C11.959 23.5688 13.4377 23.0013 14.5571 21.8693ZM5.59294 17.8671C5.58521 16.5614 6.08654 15.3309 7.00482 14.4028C7.95966 13.4374 9.21966 12.9537 10.4811 12.9537C11.7235 12.9537 12.9659 13.4227 13.9172 14.3634C14.8461 15.281 15.3615 16.5059 15.3685 17.8116C15.3762 19.1173 14.8749 20.3477 13.9566 21.2759C12.0617 23.1926 8.96091 23.2102 7.04419 21.3152C6.11607 20.3977 5.60068 19.1728 5.59294 17.8671Z" fill="#002F57"/>
</svg>
