<svg width="46" height="46" viewBox="0 0 46 46" fill="none" xmlns="http://www.w3.org/2000/svg">
<rect width="46" height="46" rx="10" fill="#002F57"/>
<path fill-rule="evenodd" clip-rule="evenodd" d="M6.69746 12.8236C6.79284 12.9176 6.86876 13.0296 6.92087 13.153C6.97298 13.2764 7.00027 13.409 7.00119 13.543C7.0021 13.6769 6.97662 13.8098 6.9262 13.9339C6.87578 14.058 6.80141 14.171 6.70733 14.2663C6.61325 14.3617 6.50131 14.4376 6.37789 14.4897C6.25448 14.5418 6.12201 14.5691 5.98805 14.57C5.85409 14.5709 5.72126 14.5455 5.59714 14.495C5.34648 14.3932 5.14654 14.196 5.0413 13.9467C4.98918 13.8233 4.96188 13.6908 4.96096 13.5569C4.96004 13.4229 4.98551 13.2901 5.03593 13.166C5.08634 13.0418 5.16071 12.9289 5.25479 12.8335C5.34886 12.7381 5.4608 12.6622 5.58422 12.6101C5.70763 12.558 5.8401 12.5307 5.97407 12.5297C6.10803 12.5288 6.24087 12.5543 6.36499 12.6047C6.48911 12.6551 6.60208 12.7295 6.69746 12.8236ZM5.35593 13.5881C5.35748 13.6772 5.37673 13.7651 5.41256 13.8467C5.48361 14.0086 5.6155 14.136 5.77973 14.2013C5.94395 14.2667 6.12731 14.2648 6.29014 14.196C6.45298 14.1273 6.58221 13.9972 6.64989 13.8339C6.71757 13.6706 6.71826 13.4873 6.65181 13.3235C6.6183 13.2409 6.56871 13.1658 6.50592 13.1025C6.44313 13.0392 6.36839 12.9891 6.28605 12.955C6.20371 12.9208 6.11541 12.9034 6.02627 12.9037C5.93714 12.904 5.84895 12.922 5.76684 12.9567C5.68472 12.9913 5.61031 13.042 5.54794 13.1057C5.48557 13.1693 5.43648 13.2448 5.40351 13.3276C5.37055 13.4104 5.35438 13.499 5.35593 13.5881ZM22.5474 9.61575C22.4705 9.69121 22.3794 9.75056 22.2793 9.79033C22.0827 9.86845 21.8633 9.86645 21.6681 9.78474C21.473 9.70304 21.3176 9.54813 21.2353 9.35323C21.153 9.15833 21.1503 8.93894 21.2278 8.74209C21.3053 8.54523 21.4569 8.38657 21.65 8.30012C21.7483 8.25611 21.8544 8.23217 21.962 8.2297C22.0697 8.22724 22.1768 8.24629 22.277 8.28575C22.3772 8.32521 22.4685 8.38427 22.5456 8.45949C22.6227 8.5347 22.6839 8.62455 22.7258 8.72376C22.7677 8.82297 22.7894 8.92955 22.7896 9.03725C22.7897 9.14494 22.7684 9.25158 22.7268 9.35092C22.6852 9.45026 22.6242 9.5403 22.5474 9.61575ZM21.9344 8.58651C21.8705 8.58694 21.8073 8.59996 21.7484 8.62481C21.6295 8.675 21.5355 8.77036 21.4869 8.88991C21.4383 9.00946 21.4392 9.14341 21.4894 9.26229C21.5396 9.38116 21.635 9.47523 21.7545 9.5238C21.8741 9.57237 22.008 9.57145 22.1269 9.52126C22.1858 9.49641 22.2392 9.4602 22.284 9.41472C22.3289 9.36923 22.3644 9.31535 22.3884 9.25616C22.4125 9.19696 22.4246 9.13361 22.4242 9.06972C22.4238 9.00583 22.4107 8.94265 22.3859 8.88378C22.361 8.82492 22.3248 8.77153 22.2794 8.72666C22.2339 8.68179 22.18 8.64632 22.1208 8.62227C22.0616 8.59822 21.9982 8.58607 21.9344 8.58651ZM28.2574 16.781C28.2183 16.8207 28.1717 16.8523 28.1203 16.874C28.0173 16.9142 27.9026 16.9127 27.8007 16.8697C27.6988 16.8267 27.6177 16.7456 27.5747 16.6437C27.5317 16.5418 27.5301 16.4271 27.5704 16.324C27.6106 16.221 27.6895 16.1378 27.7902 16.092C27.8416 16.0703 27.8967 16.059 27.9524 16.0586C28.0081 16.0582 28.0634 16.0688 28.115 16.0898C28.1667 16.1108 28.2137 16.1417 28.2533 16.1809C28.293 16.22 28.3246 16.2666 28.3463 16.3179C28.3679 16.3693 28.3793 16.4244 28.3797 16.4801C28.38 16.5358 28.3694 16.5911 28.3485 16.6427C28.3275 16.6944 28.2965 16.7414 28.2574 16.781ZM28.9815 10.1833C28.9368 10.2286 28.8835 10.2647 28.8248 10.2895C28.7068 10.3368 28.5749 10.3358 28.4575 10.2869C28.3402 10.2379 28.2467 10.1449 28.1973 10.0277C28.1478 9.91056 28.1463 9.77868 28.1931 9.66044C28.2398 9.54219 28.3312 9.44702 28.4474 9.3954C28.5061 9.37061 28.5691 9.35763 28.6328 9.3572C28.6965 9.35677 28.7597 9.36889 28.8188 9.39288C28.8778 9.41687 28.9315 9.45225 28.9769 9.49701C29.0223 9.54176 29.0584 9.59501 29.0831 9.65372C29.1079 9.71243 29.1209 9.77545 29.1213 9.83917C29.1218 9.9029 29.1096 9.96608 29.0857 10.0251C29.0617 10.0842 29.0263 10.1379 28.9815 10.1833ZM25.6259 16.4839C25.5474 16.677 25.3955 16.831 25.2034 16.9121C25.0114 16.9932 24.795 16.9947 24.6019 16.9162C24.4088 16.8378 24.2547 16.6858 24.1736 16.4938C24.0925 16.3018 24.0911 16.0854 24.1695 15.8922C24.248 15.6991 24.3999 15.5451 24.592 15.464C24.784 15.3829 25.0004 15.3814 25.1935 15.4599C25.3866 15.5383 25.5407 15.6903 25.6218 15.8823C25.7029 16.0744 25.7044 16.2907 25.6259 16.4839ZM24.9574 15.7311C24.8886 15.7316 24.8205 15.7456 24.7572 15.7724C24.6291 15.8264 24.5278 15.9291 24.4755 16.0578C24.4232 16.1865 24.4242 16.3308 24.4782 16.4588C24.5322 16.5868 24.6349 16.6881 24.7636 16.7404C24.8924 16.7928 25.0366 16.7918 25.1646 16.7378C25.228 16.711 25.2855 16.672 25.3338 16.6231C25.3822 16.5741 25.4204 16.5161 25.4463 16.4523C25.4722 16.3886 25.4853 16.3204 25.4848 16.2516C25.4844 16.1827 25.4704 16.1147 25.4436 16.0513C25.4168 15.9879 25.3779 15.9304 25.3289 15.8821C25.2799 15.8338 25.2219 15.7956 25.1581 15.7697C25.0944 15.7438 25.0262 15.7307 24.9574 15.7311ZM35.3051 15.7789C35.2326 15.8524 35.1463 15.9109 35.0512 15.951C34.8595 16.0303 34.6442 16.0304 34.4523 15.9516C34.2604 15.8728 34.1075 15.7213 34.0268 15.5302C33.9461 15.3391 33.9442 15.1238 34.0216 14.9314C34.099 14.7389 34.2493 14.5848 34.4399 14.5027C34.535 14.4626 34.637 14.4416 34.7403 14.4409C34.8435 14.4402 34.9458 14.4598 35.0414 14.4987C35.1371 14.5375 35.2241 14.5948 35.2976 14.6673C35.3711 14.7398 35.4295 14.8261 35.4697 14.9212C35.5098 15.0163 35.5308 15.1184 35.5315 15.2216C35.5322 15.3248 35.5126 15.4271 35.4737 15.5228C35.4349 15.6184 35.3776 15.7054 35.3051 15.7789ZM34.8052 14.7699C34.7364 14.7703 34.6683 14.7843 34.6049 14.8111C34.5415 14.8379 34.4842 14.8768 34.4358 14.9258C34.3875 14.9748 34.3493 15.0328 34.3234 15.0965C34.2975 15.1603 34.2844 15.2285 34.2849 15.2973C34.2853 15.3661 34.2993 15.4342 34.3261 15.4975C34.3529 15.5609 34.3918 15.6184 34.4408 15.6668C34.4898 15.7151 34.5478 15.7533 34.6115 15.7792C34.6753 15.8051 34.7435 15.8182 34.8123 15.8177C34.8811 15.8173 34.9491 15.8033 35.0125 15.7765C35.0759 15.7497 35.1334 15.7107 35.1817 15.6618C35.2301 15.6128 35.2683 15.5548 35.2942 15.491C35.3201 15.4273 35.3332 15.359 35.3327 15.2902C35.3322 15.2214 35.3182 15.1534 35.2914 15.09C35.2647 15.0266 35.2257 14.9691 35.1767 14.9208C35.1277 14.8725 35.0697 14.8343 35.0059 14.8084C34.9422 14.7825 34.874 14.7694 34.8052 14.7699ZM36.0992 14.444C36.1376 14.4061 36.1832 14.3762 36.2333 14.356C36.3322 14.3162 36.4428 14.3169 36.5412 14.3579C36.6397 14.3988 36.7181 14.4768 36.7595 14.5751C36.801 14.6733 36.8023 14.7839 36.763 14.883C36.7237 14.9821 36.6471 15.0618 36.5496 15.105C36.5002 15.1269 36.447 15.1387 36.393 15.1397C36.3391 15.1408 36.2854 15.1311 36.2352 15.1112C36.185 15.0913 36.1393 15.0617 36.1007 15.0239C36.0621 14.9862 36.0314 14.9411 36.0104 14.8914C35.9894 14.8417 35.9786 14.7883 35.9784 14.7343C35.9783 14.6803 35.9889 14.6268 36.0096 14.577C36.0304 14.5272 36.0608 14.482 36.0992 14.444Z" fill="white" stroke="white" stroke-width="0.4"/>
<mask id="path-3-inside-1_1237_6672" fill="white">
<path d="M33.3282 14.8367C33.0519 14.1823 32.3406 13.8463 31.6727 14.0199C31.6607 13.936 31.6381 13.8539 31.6054 13.7756C31.436 13.3738 31.0343 13.1417 30.6223 13.1671C30.7129 12.8116 30.6942 12.4255 30.5406 12.0616C30.1663 11.1754 29.1445 10.7601 28.2582 11.1344C28.1309 11.188 28.0146 11.2565 27.9076 11.3346C27.6955 10.9434 27.2805 10.719 26.8518 10.7357C26.8308 10.6145 26.7963 10.4962 26.7488 10.3828C26.3974 9.55036 25.4378 9.16048 24.6055 9.51194C24.0813 9.73314 23.7331 10.196 23.6347 10.7163C23.482 10.7309 23.329 10.7684 23.1802 10.8313C22.9625 10.9234 22.769 11.0645 22.6147 11.2437C21.9122 10.1868 20.5964 9.69084 19.3623 10.0377C19.3418 9.96267 19.3166 9.88905 19.2868 9.81723C18.9756 9.07989 18.242 8.65145 17.4861 8.69013C16.3122 7.40716 14.4152 6.93435 12.7216 7.64931C11.5789 8.13182 10.7589 9.05777 10.3771 10.1423C9.88867 9.87608 9.28845 9.82576 8.73609 10.0589C7.77393 10.4652 7.32324 11.5744 7.72943 12.5365C7.8658 12.8593 8.08975 13.1376 8.37596 13.3399C7.24602 14.217 6.79792 15.7742 7.38042 17.1538C8.02514 18.6807 9.70266 19.4529 11.2553 19.0041C11.2729 19.0643 11.293 19.124 11.318 19.1831C11.6653 20.0059 12.6135 20.391 13.4362 20.0436C13.9638 19.8209 14.3101 19.3504 14.3999 18.8248C14.9444 18.9749 15.5407 18.9516 16.1014 18.7149C16.3865 18.5938 16.6476 18.4226 16.8723 18.2093C17.0635 18.4042 17.3014 18.5469 17.5634 18.6238C18.4149 18.8748 19.3087 18.3877 19.5596 17.5362C19.5868 17.4439 19.6036 17.3514 19.6139 17.2592C19.8122 17.4438 20.0417 17.5915 20.2918 17.6957C21.4612 18.1797 22.8017 17.6241 23.2859 16.4547C23.4696 16.0113 23.5086 15.5213 23.3974 15.0544C23.8541 15.1925 24.3448 15.1661 24.7841 14.9799C25.418 14.7121 25.8453 14.1624 25.9852 13.5387C26.1397 13.6468 26.3191 13.7139 26.5066 13.7337C26.6941 13.7535 26.8835 13.7255 27.0572 13.6522C27.1657 13.6062 27.2662 13.5434 27.355 13.4659C27.4523 13.6782 27.5915 13.8687 27.7641 14.0259C27.9368 14.1831 28.1395 14.3038 28.36 14.3809C28.2448 14.7085 28.2559 15.0674 28.391 15.3874C28.6666 16.0401 29.378 16.374 30.0438 16.1965C30.0489 16.4175 30.1239 16.6313 30.258 16.8071C30.3921 16.9828 30.5784 17.1116 30.7902 17.175C31.224 17.3046 31.6749 17.1385 31.9297 16.7947C32.1506 16.8105 32.3721 16.7738 32.5761 16.6877C33.2951 16.3842 33.6317 15.5554 33.3282 14.8367ZM8.41774 12.351C8.14997 11.7167 8.44711 10.9853 9.08135 10.7174C9.46166 10.557 9.87587 10.6006 10.2051 10.7969C10.0929 11.4163 10.1214 12.0531 10.2884 12.6601C9.8807 12.669 9.4784 12.7552 9.10282 12.9141C9.06233 12.9311 9.02288 12.9495 8.98356 12.968C8.72919 12.834 8.52921 12.616 8.41774 12.351ZM32.2865 16.6273C32.1899 16.6676 32.0887 16.6959 31.9852 16.7115C32.0296 16.6378 32.0665 16.5582 32.0922 16.4719C32.1449 16.2955 32.1498 16.1082 32.1064 15.9293C32.1164 16.0466 32.1043 16.1647 32.0707 16.2775C32.0355 16.3969 31.9771 16.5082 31.8988 16.605C31.8205 16.7017 31.7238 16.7821 31.6144 16.8414C31.5049 16.9008 31.3848 16.9379 31.261 16.9508C31.1372 16.9636 31.012 16.9519 30.8928 16.9162C30.7735 16.8806 30.6624 16.8218 30.5659 16.7431C30.4694 16.6644 30.3894 16.5675 30.3304 16.4579C30.2715 16.3482 30.2347 16.228 30.2223 16.1041C30.2099 15.9803 30.2221 15.8552 30.2582 15.736C30.2888 15.6336 30.3358 15.5407 30.3946 15.4583C30.3762 15.4538 30.3579 15.4488 30.3398 15.4433C30.1975 15.589 30.101 15.7733 30.0625 15.9734C29.486 16.0575 28.9033 15.7486 28.666 15.1869C28.3893 14.5316 28.6867 13.7789 29.3294 13.4852C29.2651 13.502 29.2012 13.522 29.1382 13.5486C28.8656 13.6636 28.6367 13.8622 28.4844 14.1158C28.0653 14.0113 27.6984 13.7209 27.5138 13.2951C27.5618 13.2313 27.6027 13.1625 27.636 13.09C27.496 13.2352 27.3222 13.3435 27.1301 13.4051C26.938 13.4666 26.7336 13.4796 26.5353 13.4427C26.337 13.4059 26.1509 13.3204 25.9937 13.194C25.8366 13.0675 25.7132 12.904 25.6348 12.7182C25.5848 12.5996 25.554 12.4739 25.5435 12.3457C25.4925 12.5406 25.4956 12.7458 25.5525 12.9391C25.6093 13.1325 25.7176 13.3067 25.866 13.4431C25.6914 13.9118 25.3334 14.3109 24.8363 14.5207C24.2081 14.786 23.518 14.6821 23.0027 14.31C23.185 14.8248 23.1873 15.4055 22.9619 15.9498C22.4778 17.1192 21.1373 17.6748 19.9679 17.1906C19.8478 17.1401 19.7322 17.0794 19.6224 17.0093C19.613 16.8028 19.5638 16.6002 19.4775 16.4124C19.5047 16.6342 19.4861 16.8592 19.4229 17.0734C19.1671 17.9414 18.2561 18.4378 17.3881 18.182C17.2674 18.1461 17.1513 18.0963 17.042 18.0338C17.1858 17.8708 17.3085 17.6905 17.4074 17.497C17.1478 17.7978 16.8225 18.0349 16.4566 18.1897C15.1327 18.7486 13.6066 18.1289 13.0476 16.805C12.7374 16.0701 12.7915 15.2734 13.1265 14.6137C12.4974 15.3397 12.2934 16.3856 12.6924 17.3302C12.9785 18.0081 13.519 18.4996 14.1553 18.7445C14.0311 19.1141 13.7566 19.4311 13.3692 19.5948C12.6726 19.8888 11.8738 19.5786 11.552 18.9027C11.5746 18.8936 11.5975 18.8855 11.62 18.876C11.7534 18.8194 11.883 18.7539 12.0077 18.6801C10.5145 19.2733 8.8141 18.5683 8.18555 17.0795C7.54936 15.5728 8.2554 13.8339 9.76268 13.1975C10.6216 12.8349 11.5551 12.9089 12.3171 13.3178C11.8802 12.9868 11.3667 12.7716 10.8243 12.6922C10.4328 10.8825 11.3684 8.99309 13.1366 8.24656C14.4902 7.67506 15.9836 7.92084 17.0691 8.75934C16.9992 8.77965 16.9299 8.8028 16.8612 8.83178C16.1757 9.12115 15.7575 9.77544 15.7327 10.4731C15.8109 10.2122 15.9458 9.97189 16.1277 9.76928C16.3097 9.56666 16.5342 9.40679 16.7851 9.30109C17.6674 8.92854 18.6762 9.29255 19.1272 10.114C19.0877 10.1287 19.0483 10.1437 19.0092 10.1603C18.8537 10.2262 18.7042 10.3052 18.5621 10.3965C20.0548 9.77958 21.7577 10.4228 22.4812 11.8421C22.6849 11.4897 22.998 11.2133 23.373 11.0551C23.4494 11.0235 23.5278 10.9969 23.6077 10.9756C23.6065 11.023 23.6076 11.0704 23.6105 11.1182C23.7186 10.6137 24.0619 10.168 24.573 9.95215C25.4053 9.60081 26.3649 9.9907 26.7165 10.8231C26.7446 10.8899 26.7663 10.9576 26.785 11.0257C27.004 11.0306 27.2175 11.0945 27.4032 11.2106C27.5889 11.3266 27.7399 11.4906 27.8403 11.6852C27.9657 11.5648 28.112 11.4684 28.272 11.4006C29.0028 11.0921 29.8453 11.4343 30.1537 12.1651C30.3185 12.5553 30.2962 12.9768 30.1296 13.3324C29.9885 13.4265 29.8736 13.555 29.7957 13.7057C29.7179 13.8565 29.6797 14.0245 29.6846 14.1941C29.7275 14.0546 29.8004 13.9263 29.8983 13.8182C29.9961 13.71 30.1165 13.6246 30.2509 13.568C30.4954 13.4648 30.7708 13.4629 31.0166 13.5627C31.2624 13.6626 31.4585 13.856 31.5617 14.1004C31.6114 14.2181 31.6358 14.3397 31.6393 14.4601C31.6676 14.3688 31.6826 14.2738 31.684 14.1781C32.2194 14.1336 32.746 14.4319 32.9663 14.9539C33.2407 15.6037 32.9363 16.3529 32.2865 16.6273Z"/>
</mask>
<path d="M33.3282 14.8367C33.0519 14.1823 32.3406 13.8463 31.6727 14.0199C31.6607 13.936 31.6381 13.8539 31.6054 13.7756C31.436 13.3738 31.0343 13.1417 30.6223 13.1671C30.7129 12.8116 30.6942 12.4255 30.5406 12.0616C30.1663 11.1754 29.1445 10.7601 28.2582 11.1344C28.1309 11.188 28.0146 11.2565 27.9076 11.3346C27.6955 10.9434 27.2805 10.719 26.8518 10.7357C26.8308 10.6145 26.7963 10.4962 26.7488 10.3828C26.3974 9.55036 25.4378 9.16048 24.6055 9.51194C24.0813 9.73314 23.7331 10.196 23.6347 10.7163C23.482 10.7309 23.329 10.7684 23.1802 10.8313C22.9625 10.9234 22.769 11.0645 22.6147 11.2437C21.9122 10.1868 20.5964 9.69084 19.3623 10.0377C19.3418 9.96267 19.3166 9.88905 19.2868 9.81723C18.9756 9.07989 18.242 8.65145 17.4861 8.69013C16.3122 7.40716 14.4152 6.93435 12.7216 7.64931C11.5789 8.13182 10.7589 9.05777 10.3771 10.1423C9.88867 9.87608 9.28845 9.82576 8.73609 10.0589C7.77393 10.4652 7.32324 11.5744 7.72943 12.5365C7.8658 12.8593 8.08975 13.1376 8.37596 13.3399C7.24602 14.217 6.79792 15.7742 7.38042 17.1538C8.02514 18.6807 9.70266 19.4529 11.2553 19.0041C11.2729 19.0643 11.293 19.124 11.318 19.1831C11.6653 20.0059 12.6135 20.391 13.4362 20.0436C13.9638 19.8209 14.3101 19.3504 14.3999 18.8248C14.9444 18.9749 15.5407 18.9516 16.1014 18.7149C16.3865 18.5938 16.6476 18.4226 16.8723 18.2093C17.0635 18.4042 17.3014 18.5469 17.5634 18.6238C18.4149 18.8748 19.3087 18.3877 19.5596 17.5362C19.5868 17.4439 19.6036 17.3514 19.6139 17.2592C19.8122 17.4438 20.0417 17.5915 20.2918 17.6957C21.4612 18.1797 22.8017 17.6241 23.2859 16.4547C23.4696 16.0113 23.5086 15.5213 23.3974 15.0544C23.8541 15.1925 24.3448 15.1661 24.7841 14.9799C25.418 14.7121 25.8453 14.1624 25.9852 13.5387C26.1397 13.6468 26.3191 13.7139 26.5066 13.7337C26.6941 13.7535 26.8835 13.7255 27.0572 13.6522C27.1657 13.6062 27.2662 13.5434 27.355 13.4659C27.4523 13.6782 27.5915 13.8687 27.7641 14.0259C27.9368 14.1831 28.1395 14.3038 28.36 14.3809C28.2448 14.7085 28.2559 15.0674 28.391 15.3874C28.6666 16.0401 29.378 16.374 30.0438 16.1965C30.0489 16.4175 30.1239 16.6313 30.258 16.8071C30.3921 16.9828 30.5784 17.1116 30.7902 17.175C31.224 17.3046 31.6749 17.1385 31.9297 16.7947C32.1506 16.8105 32.3721 16.7738 32.5761 16.6877C33.2951 16.3842 33.6317 15.5554 33.3282 14.8367ZM8.41774 12.351C8.14997 11.7167 8.44711 10.9853 9.08135 10.7174C9.46166 10.557 9.87587 10.6006 10.2051 10.7969C10.0929 11.4163 10.1214 12.0531 10.2884 12.6601C9.8807 12.669 9.4784 12.7552 9.10282 12.9141C9.06233 12.9311 9.02288 12.9495 8.98356 12.968C8.72919 12.834 8.52921 12.616 8.41774 12.351ZM32.2865 16.6273C32.1899 16.6676 32.0887 16.6959 31.9852 16.7115C32.0296 16.6378 32.0665 16.5582 32.0922 16.4719C32.1449 16.2955 32.1498 16.1082 32.1064 15.9293C32.1164 16.0466 32.1043 16.1647 32.0707 16.2775C32.0355 16.3969 31.9771 16.5082 31.8988 16.605C31.8205 16.7017 31.7238 16.7821 31.6144 16.8414C31.5049 16.9008 31.3848 16.9379 31.261 16.9508C31.1372 16.9636 31.012 16.9519 30.8928 16.9162C30.7735 16.8806 30.6624 16.8218 30.5659 16.7431C30.4694 16.6644 30.3894 16.5675 30.3304 16.4579C30.2715 16.3482 30.2347 16.228 30.2223 16.1041C30.2099 15.9803 30.2221 15.8552 30.2582 15.736C30.2888 15.6336 30.3358 15.5407 30.3946 15.4583C30.3762 15.4538 30.3579 15.4488 30.3398 15.4433C30.1975 15.589 30.101 15.7733 30.0625 15.9734C29.486 16.0575 28.9033 15.7486 28.666 15.1869C28.3893 14.5316 28.6867 13.7789 29.3294 13.4852C29.2651 13.502 29.2012 13.522 29.1382 13.5486C28.8656 13.6636 28.6367 13.8622 28.4844 14.1158C28.0653 14.0113 27.6984 13.7209 27.5138 13.2951C27.5618 13.2313 27.6027 13.1625 27.636 13.09C27.496 13.2352 27.3222 13.3435 27.1301 13.4051C26.938 13.4666 26.7336 13.4796 26.5353 13.4427C26.337 13.4059 26.1509 13.3204 25.9937 13.194C25.8366 13.0675 25.7132 12.904 25.6348 12.7182C25.5848 12.5996 25.554 12.4739 25.5435 12.3457C25.4925 12.5406 25.4956 12.7458 25.5525 12.9391C25.6093 13.1325 25.7176 13.3067 25.866 13.4431C25.6914 13.9118 25.3334 14.3109 24.8363 14.5207C24.2081 14.786 23.518 14.6821 23.0027 14.31C23.185 14.8248 23.1873 15.4055 22.9619 15.9498C22.4778 17.1192 21.1373 17.6748 19.9679 17.1906C19.8478 17.1401 19.7322 17.0794 19.6224 17.0093C19.613 16.8028 19.5638 16.6002 19.4775 16.4124C19.5047 16.6342 19.4861 16.8592 19.4229 17.0734C19.1671 17.9414 18.2561 18.4378 17.3881 18.182C17.2674 18.1461 17.1513 18.0963 17.042 18.0338C17.1858 17.8708 17.3085 17.6905 17.4074 17.497C17.1478 17.7978 16.8225 18.0349 16.4566 18.1897C15.1327 18.7486 13.6066 18.1289 13.0476 16.805C12.7374 16.0701 12.7915 15.2734 13.1265 14.6137C12.4974 15.3397 12.2934 16.3856 12.6924 17.3302C12.9785 18.0081 13.519 18.4996 14.1553 18.7445C14.0311 19.1141 13.7566 19.4311 13.3692 19.5948C12.6726 19.8888 11.8738 19.5786 11.552 18.9027C11.5746 18.8936 11.5975 18.8855 11.62 18.876C11.7534 18.8194 11.883 18.7539 12.0077 18.6801C10.5145 19.2733 8.8141 18.5683 8.18555 17.0795C7.54936 15.5728 8.2554 13.8339 9.76268 13.1975C10.6216 12.8349 11.5551 12.9089 12.3171 13.3178C11.8802 12.9868 11.3667 12.7716 10.8243 12.6922C10.4328 10.8825 11.3684 8.99309 13.1366 8.24656C14.4902 7.67506 15.9836 7.92084 17.0691 8.75934C16.9992 8.77965 16.9299 8.8028 16.8612 8.83178C16.1757 9.12115 15.7575 9.77544 15.7327 10.4731C15.8109 10.2122 15.9458 9.97189 16.1277 9.76928C16.3097 9.56666 16.5342 9.40679 16.7851 9.30109C17.6674 8.92854 18.6762 9.29255 19.1272 10.114C19.0877 10.1287 19.0483 10.1437 19.0092 10.1603C18.8537 10.2262 18.7042 10.3052 18.5621 10.3965C20.0548 9.77958 21.7577 10.4228 22.4812 11.8421C22.6849 11.4897 22.998 11.2133 23.373 11.0551C23.4494 11.0235 23.5278 10.9969 23.6077 10.9756C23.6065 11.023 23.6076 11.0704 23.6105 11.1182C23.7186 10.6137 24.0619 10.168 24.573 9.95215C25.4053 9.60081 26.3649 9.9907 26.7165 10.8231C26.7446 10.8899 26.7663 10.9576 26.785 11.0257C27.004 11.0306 27.2175 11.0945 27.4032 11.2106C27.5889 11.3266 27.7399 11.4906 27.8403 11.6852C27.9657 11.5648 28.112 11.4684 28.272 11.4006C29.0028 11.0921 29.8453 11.4343 30.1537 12.1651C30.3185 12.5553 30.2962 12.9768 30.1296 13.3324C29.9885 13.4265 29.8736 13.555 29.7957 13.7057C29.7179 13.8565 29.6797 14.0245 29.6846 14.1941C29.7275 14.0546 29.8004 13.9263 29.8983 13.8182C29.9961 13.71 30.1165 13.6246 30.2509 13.568C30.4954 13.4648 30.7708 13.4629 31.0166 13.5627C31.2624 13.6626 31.4585 13.856 31.5617 14.1004C31.6114 14.2181 31.6358 14.3397 31.6393 14.4601C31.6676 14.3688 31.6826 14.2738 31.684 14.1781C32.2194 14.1336 32.746 14.4319 32.9663 14.9539C33.2407 15.6037 32.9363 16.3529 32.2865 16.6273Z" fill="white" stroke="white" stroke-width="0.258716" mask="url(#path-3-inside-1_1237_6672)"/>
<mask id="path-4-inside-2_1237_6672" fill="white">
<path d="M33.7384 20.0819C33.6754 20.7894 33.1009 21.3268 32.4119 21.3657C32.4262 21.4493 32.4298 21.5344 32.4226 21.6189C32.3841 22.0533 32.0726 22.397 31.6726 22.4989C31.8675 22.8096 31.9678 23.183 31.9328 23.5764C31.8475 24.5346 31.0016 25.2424 30.0432 25.1571C29.9056 25.1449 29.774 25.1153 29.6482 25.0737C29.5658 25.511 29.2394 25.8515 28.8261 25.9667C28.8432 26.0885 28.8465 26.2117 28.836 26.3342C28.7558 27.2342 27.9614 27.8988 27.0615 27.8187C26.4949 27.7684 26.0218 27.4342 25.769 26.9689C25.6192 27.0016 25.462 27.0127 25.3011 26.9983C25.0657 26.9772 24.8382 26.902 24.6366 26.7786C24.2909 27.9996 23.1898 28.8742 21.9088 28.9213C21.9121 28.999 21.9106 29.0768 21.9042 29.1543C21.8334 29.9515 21.2659 30.5837 20.5344 30.778C19.809 32.3584 18.1474 33.3886 16.3163 33.2258C15.0808 33.1158 14.0169 32.4849 13.3219 31.569C12.9382 31.9718 12.3821 32.2033 11.7849 32.1502C10.7446 32.0576 9.97635 31.1392 10.0689 30.0991C10.1001 29.75 10.2282 29.4165 10.4388 29.1364C9.09484 28.6469 8.19207 27.3013 8.32484 25.8096C8.4718 24.1587 9.83289 22.9106 11.4484 22.8631C11.4468 22.8004 11.4476 22.7374 11.4533 22.6735C11.5324 21.784 12.3175 21.1274 13.207 21.2065C13.7775 21.2573 14.251 21.5994 14.4972 22.0723C14.9697 21.763 15.5446 21.6028 16.1508 21.6568C16.4593 21.6848 16.7603 21.768 17.0394 21.9023C17.1619 21.6584 17.3447 21.4498 17.5706 21.2964C18.3047 20.7971 19.3045 20.9876 19.8038 21.7216C19.8579 21.8011 19.9022 21.884 19.9402 21.9687C20.0726 21.7324 20.2459 21.5215 20.4522 21.3459C21.4175 20.5275 22.8638 20.6466 23.6823 21.6119C23.9928 21.9779 24.1798 22.4325 24.2166 22.911C24.6093 22.64 25.0845 22.515 25.5597 22.558C26.2451 22.6191 26.82 23.0119 27.144 23.5629C27.258 23.4128 27.4083 23.2941 27.5807 23.2178C27.7532 23.1416 27.9421 23.1104 28.1299 23.1271C28.2473 23.1377 28.3622 23.1668 28.4704 23.2134C28.4981 22.9815 28.5724 22.7576 28.6887 22.5551C28.8051 22.3526 28.9611 22.1757 29.1475 22.035C28.9376 21.7582 28.8384 21.4131 28.8693 21.0672C28.932 20.3614 29.5074 19.826 30.1955 19.7914C30.1328 19.5794 30.1389 19.353 30.2128 19.1446C30.2867 18.9363 30.4247 18.7567 30.607 18.6316C30.9803 18.3756 31.4605 18.3958 31.8082 18.6453C32.0137 18.5627 32.2358 18.5299 32.4564 18.5495C33.2337 18.6186 33.8076 19.3048 33.7384 20.0819ZM10.781 30.0652C10.72 30.751 11.2265 31.3565 11.9123 31.4176C12.3234 31.4541 12.7045 31.2859 12.9579 30.9984C12.6617 30.4429 12.4941 29.8279 12.4675 29.1989C12.0766 29.3151 11.6673 29.356 11.2611 29.3196C11.2173 29.3158 11.1741 29.3103 11.131 29.3047C10.9298 29.5101 10.8061 29.7789 10.781 30.0652ZM32.1991 18.6956C32.0948 18.6867 31.9898 18.6907 31.8865 18.7075C31.9513 18.7641 32.0107 18.8286 32.0616 18.9029C32.1657 19.0548 32.2277 19.2315 32.2411 19.4152C32.2147 19.3005 32.1671 19.1917 32.1006 19.0946C32.0306 18.9916 31.9409 18.9036 31.8368 18.8354C31.7326 18.7672 31.616 18.7202 31.4937 18.6972C31.3713 18.6741 31.2456 18.6755 31.1238 18.7011C31.002 18.7268 30.8864 18.7762 30.7838 18.8466C30.6811 18.917 30.5933 19.007 30.5255 19.1114C30.4577 19.2158 30.4111 19.3325 30.3885 19.455C30.3659 19.5774 30.3677 19.7031 30.3938 19.8248C30.4198 19.9465 30.4697 20.0619 30.5404 20.1643C30.6009 20.2525 30.6741 20.3266 30.7553 20.387C30.7391 20.3969 30.7232 20.4073 30.7077 20.4181C30.5276 20.3228 30.3794 20.1768 30.2815 19.9982C29.707 20.0944 29.2466 20.5667 29.1924 21.174C29.1294 21.8825 29.6426 22.5082 30.3443 22.5914C30.278 22.595 30.211 22.5955 30.1429 22.5895C29.8483 22.5633 29.5696 22.4442 29.347 22.2493C28.9799 22.477 28.7194 22.8656 28.6739 23.3274C28.739 23.3735 28.799 23.4265 28.8528 23.4854C28.6752 23.3899 28.4766 23.34 28.2749 23.3401C28.0731 23.3402 27.8746 23.3904 27.6971 23.4861C27.5195 23.5818 27.3685 23.7201 27.2575 23.8885C27.1465 24.057 27.0791 24.2503 27.0612 24.4513C27.0499 24.5794 27.059 24.7086 27.0882 24.8339C26.98 24.6638 26.9203 24.4675 26.9153 24.2661C26.9102 24.0646 26.9601 23.8656 27.0596 23.6904C26.7502 23.2975 26.2873 23.027 25.7498 22.9793C25.0706 22.9187 24.4453 23.2286 24.0685 23.7405C24.0846 23.1946 23.9093 22.641 23.5282 22.1917C22.7097 21.2263 21.2635 21.1072 20.2982 21.9258C20.1993 22.0106 20.1078 22.1037 20.0247 22.2041C20.0788 22.4035 20.094 22.6115 20.0692 22.8166C20.0274 22.5972 19.9409 22.3887 19.8151 22.204C19.3062 21.4557 18.287 21.2617 17.5388 21.7706C17.4349 21.8418 17.3396 21.9246 17.2547 22.0176C17.4413 22.1288 17.6133 22.263 17.7666 22.417C17.4275 22.2099 17.0453 22.0837 16.6496 22.0482C15.2182 21.9208 13.9546 22.9775 13.8272 24.4089C13.7566 25.2034 14.0517 25.9454 14.5724 26.4711C13.7515 25.9723 13.2374 25.0387 13.3284 24.0174C13.3936 23.2846 13.7579 22.6513 14.2889 22.2236C14.0576 21.9097 13.6993 21.6917 13.2804 21.6544C12.5273 21.5874 11.8616 22.127 11.7618 22.869C11.7862 22.8707 11.8105 22.8714 11.8348 22.8735C11.9791 22.8867 12.1225 22.9094 12.2638 22.9416C10.6608 22.8333 9.25734 24.0245 9.11411 25.6341C8.9691 27.2633 10.173 28.7029 11.8027 28.848C12.7314 28.9306 13.5975 28.5748 14.198 27.9524C13.8832 28.4012 13.4601 28.7631 12.968 29.0045C13.1485 30.8473 14.6171 32.3601 16.5288 32.5302C17.9923 32.6605 19.3391 31.9698 20.1162 30.8396C20.0435 30.8416 19.9704 30.8408 19.8961 30.8342C19.155 30.7683 18.5568 30.2732 18.3198 29.6166C18.474 29.841 18.6759 30.0286 18.9111 30.1659C19.1463 30.3031 19.4089 30.3867 19.6802 30.4106C20.6341 30.4956 21.4833 29.8405 21.6615 28.9206C21.6194 28.9186 21.5773 28.9164 21.535 28.9125C21.3669 28.8974 21.2003 28.8678 21.0372 28.8243C22.647 28.9553 24.0716 27.8223 24.3265 26.2497C24.6282 26.5229 25.0108 26.6903 25.4162 26.7263C25.4987 26.733 25.5814 26.7343 25.664 26.7302C25.6483 26.6855 25.6349 26.6399 25.623 26.5936C25.8803 27.0409 26.3434 27.3602 26.896 27.4095C27.7959 27.4895 28.5903 26.8249 28.6705 25.9249C28.6768 25.8527 28.6768 25.7815 28.6739 25.711C28.8808 25.6394 29.0646 25.5133 29.2059 25.346C29.3472 25.1787 29.4409 24.9764 29.477 24.7605C29.6332 24.8367 29.8019 24.8838 29.975 24.8994C30.7651 24.9697 31.4626 24.3862 31.5328 23.5962C31.5703 23.1742 31.4203 22.7798 31.1529 22.4921C30.9898 22.4457 30.8411 22.3585 30.7209 22.2388C30.6007 22.1191 30.5129 21.9708 30.4658 21.8078C30.5493 21.9274 30.6579 22.0273 30.7842 22.1004C30.9104 22.1734 31.0511 22.2179 31.1964 22.2308C31.4607 22.2543 31.7235 22.1719 31.927 22.0016C32.1305 21.8314 32.2581 21.5873 32.2816 21.323C32.293 21.1958 32.279 21.0725 32.2455 20.9568C32.3004 21.0351 32.3438 21.121 32.3743 21.2116C32.8976 21.0903 33.3078 20.6453 33.358 20.0809C33.4205 19.3784 32.9016 18.7581 32.1991 18.6956Z"/>
</mask>
<path d="M33.7384 20.0819C33.6754 20.7894 33.1009 21.3268 32.4119 21.3657C32.4262 21.4493 32.4298 21.5344 32.4226 21.6189C32.3841 22.0533 32.0726 22.397 31.6726 22.4989C31.8675 22.8096 31.9678 23.183 31.9328 23.5764C31.8475 24.5346 31.0016 25.2424 30.0432 25.1571C29.9056 25.1449 29.774 25.1153 29.6482 25.0737C29.5658 25.511 29.2394 25.8515 28.8261 25.9667C28.8432 26.0885 28.8465 26.2117 28.836 26.3342C28.7558 27.2342 27.9614 27.8988 27.0615 27.8187C26.4949 27.7684 26.0218 27.4342 25.769 26.9689C25.6192 27.0016 25.462 27.0127 25.3011 26.9983C25.0657 26.9772 24.8382 26.902 24.6366 26.7786C24.2909 27.9996 23.1898 28.8742 21.9088 28.9213C21.9121 28.999 21.9106 29.0768 21.9042 29.1543C21.8334 29.9515 21.2659 30.5837 20.5344 30.778C19.809 32.3584 18.1474 33.3886 16.3163 33.2258C15.0808 33.1158 14.0169 32.4849 13.3219 31.569C12.9382 31.9718 12.3821 32.2033 11.7849 32.1502C10.7446 32.0576 9.97635 31.1392 10.0689 30.0991C10.1001 29.75 10.2282 29.4165 10.4388 29.1364C9.09484 28.6469 8.19207 27.3013 8.32484 25.8096C8.4718 24.1587 9.83289 22.9106 11.4484 22.8631C11.4468 22.8004 11.4476 22.7374 11.4533 22.6735C11.5324 21.784 12.3175 21.1274 13.207 21.2065C13.7775 21.2573 14.251 21.5994 14.4972 22.0723C14.9697 21.763 15.5446 21.6028 16.1508 21.6568C16.4593 21.6848 16.7603 21.768 17.0394 21.9023C17.1619 21.6584 17.3447 21.4498 17.5706 21.2964C18.3047 20.7971 19.3045 20.9876 19.8038 21.7216C19.8579 21.8011 19.9022 21.884 19.9402 21.9687C20.0726 21.7324 20.2459 21.5215 20.4522 21.3459C21.4175 20.5275 22.8638 20.6466 23.6823 21.6119C23.9928 21.9779 24.1798 22.4325 24.2166 22.911C24.6093 22.64 25.0845 22.515 25.5597 22.558C26.2451 22.6191 26.82 23.0119 27.144 23.5629C27.258 23.4128 27.4083 23.2941 27.5807 23.2178C27.7532 23.1416 27.9421 23.1104 28.1299 23.1271C28.2473 23.1377 28.3622 23.1668 28.4704 23.2134C28.4981 22.9815 28.5724 22.7576 28.6887 22.5551C28.8051 22.3526 28.9611 22.1757 29.1475 22.035C28.9376 21.7582 28.8384 21.4131 28.8693 21.0672C28.932 20.3614 29.5074 19.826 30.1955 19.7914C30.1328 19.5794 30.1389 19.353 30.2128 19.1446C30.2867 18.9363 30.4247 18.7567 30.607 18.6316C30.9803 18.3756 31.4605 18.3958 31.8082 18.6453C32.0137 18.5627 32.2358 18.5299 32.4564 18.5495C33.2337 18.6186 33.8076 19.3048 33.7384 20.0819ZM10.781 30.0652C10.72 30.751 11.2265 31.3565 11.9123 31.4176C12.3234 31.4541 12.7045 31.2859 12.9579 30.9984C12.6617 30.4429 12.4941 29.8279 12.4675 29.1989C12.0766 29.3151 11.6673 29.356 11.2611 29.3196C11.2173 29.3158 11.1741 29.3103 11.131 29.3047C10.9298 29.5101 10.8061 29.7789 10.781 30.0652ZM32.1991 18.6956C32.0948 18.6867 31.9898 18.6907 31.8865 18.7075C31.9513 18.7641 32.0107 18.8286 32.0616 18.9029C32.1657 19.0548 32.2277 19.2315 32.2411 19.4152C32.2147 19.3005 32.1671 19.1917 32.1006 19.0946C32.0306 18.9916 31.9409 18.9036 31.8368 18.8354C31.7326 18.7672 31.616 18.7202 31.4937 18.6972C31.3713 18.6741 31.2456 18.6755 31.1238 18.7011C31.002 18.7268 30.8864 18.7762 30.7838 18.8466C30.6811 18.917 30.5933 19.007 30.5255 19.1114C30.4577 19.2158 30.4111 19.3325 30.3885 19.455C30.3659 19.5774 30.3677 19.7031 30.3938 19.8248C30.4198 19.9465 30.4697 20.0619 30.5404 20.1643C30.6009 20.2525 30.6741 20.3266 30.7553 20.387C30.7391 20.3969 30.7232 20.4073 30.7077 20.4181C30.5276 20.3228 30.3794 20.1768 30.2815 19.9982C29.707 20.0944 29.2466 20.5667 29.1924 21.174C29.1294 21.8825 29.6426 22.5082 30.3443 22.5914C30.278 22.595 30.211 22.5955 30.1429 22.5895C29.8483 22.5633 29.5696 22.4442 29.347 22.2493C28.9799 22.477 28.7194 22.8656 28.6739 23.3274C28.739 23.3735 28.799 23.4265 28.8528 23.4854C28.6752 23.3899 28.4766 23.34 28.2749 23.3401C28.0731 23.3402 27.8746 23.3904 27.6971 23.4861C27.5195 23.5818 27.3685 23.7201 27.2575 23.8885C27.1465 24.057 27.0791 24.2503 27.0612 24.4513C27.0499 24.5794 27.059 24.7086 27.0882 24.8339C26.98 24.6638 26.9203 24.4675 26.9153 24.2661C26.9102 24.0646 26.9601 23.8656 27.0596 23.6904C26.7502 23.2975 26.2873 23.027 25.7498 22.9793C25.0706 22.9187 24.4453 23.2286 24.0685 23.7405C24.0846 23.1946 23.9093 22.641 23.5282 22.1917C22.7097 21.2263 21.2635 21.1072 20.2982 21.9258C20.1993 22.0106 20.1078 22.1037 20.0247 22.2041C20.0788 22.4035 20.094 22.6115 20.0692 22.8166C20.0274 22.5972 19.9409 22.3887 19.8151 22.204C19.3062 21.4557 18.287 21.2617 17.5388 21.7706C17.4349 21.8418 17.3396 21.9246 17.2547 22.0176C17.4413 22.1288 17.6133 22.263 17.7666 22.417C17.4275 22.2099 17.0453 22.0837 16.6496 22.0482C15.2182 21.9208 13.9546 22.9775 13.8272 24.4089C13.7566 25.2034 14.0517 25.9454 14.5724 26.4711C13.7515 25.9723 13.2374 25.0387 13.3284 24.0174C13.3936 23.2846 13.7579 22.6513 14.2889 22.2236C14.0576 21.9097 13.6993 21.6917 13.2804 21.6544C12.5273 21.5874 11.8616 22.127 11.7618 22.869C11.7862 22.8707 11.8105 22.8714 11.8348 22.8735C11.9791 22.8867 12.1225 22.9094 12.2638 22.9416C10.6608 22.8333 9.25734 24.0245 9.11411 25.6341C8.9691 27.2633 10.173 28.7029 11.8027 28.848C12.7314 28.9306 13.5975 28.5748 14.198 27.9524C13.8832 28.4012 13.4601 28.7631 12.968 29.0045C13.1485 30.8473 14.6171 32.3601 16.5288 32.5302C17.9923 32.6605 19.3391 31.9698 20.1162 30.8396C20.0435 30.8416 19.9704 30.8408 19.8961 30.8342C19.155 30.7683 18.5568 30.2732 18.3198 29.6166C18.474 29.841 18.6759 30.0286 18.9111 30.1659C19.1463 30.3031 19.4089 30.3867 19.6802 30.4106C20.6341 30.4956 21.4833 29.8405 21.6615 28.9206C21.6194 28.9186 21.5773 28.9164 21.535 28.9125C21.3669 28.8974 21.2003 28.8678 21.0372 28.8243C22.647 28.9553 24.0716 27.8223 24.3265 26.2497C24.6282 26.5229 25.0108 26.6903 25.4162 26.7263C25.4987 26.733 25.5814 26.7343 25.664 26.7302C25.6483 26.6855 25.6349 26.6399 25.623 26.5936C25.8803 27.0409 26.3434 27.3602 26.896 27.4095C27.7959 27.4895 28.5903 26.8249 28.6705 25.9249C28.6768 25.8527 28.6768 25.7815 28.6739 25.711C28.8808 25.6394 29.0646 25.5133 29.2059 25.346C29.3472 25.1787 29.4409 24.9764 29.477 24.7605C29.6332 24.8367 29.8019 24.8838 29.975 24.8994C30.7651 24.9697 31.4626 24.3862 31.5328 23.5962C31.5703 23.1742 31.4203 22.7798 31.1529 22.4921C30.9898 22.4457 30.8411 22.3585 30.7209 22.2388C30.6007 22.1191 30.5129 21.9708 30.4658 21.8078C30.5493 21.9274 30.6579 22.0273 30.7842 22.1004C30.9104 22.1734 31.0511 22.2179 31.1964 22.2308C31.4607 22.2543 31.7235 22.1719 31.927 22.0016C32.1305 21.8314 32.2581 21.5873 32.2816 21.323C32.293 21.1958 32.279 21.0725 32.2455 20.9568C32.3004 21.0351 32.3438 21.121 32.3743 21.2116C32.8976 21.0903 33.3078 20.6453 33.358 20.0809C33.4205 19.3784 32.9016 18.7581 32.1991 18.6956Z" fill="white" stroke="white" stroke-width="0.258716" mask="url(#path-4-inside-2_1237_6672)"/>
</svg>
