<svg width="46" height="46" viewBox="0 0 46 46" fill="none" xmlns="http://www.w3.org/2000/svg">
<rect width="46" height="46" rx="10" fill="#002F57"/>
<path d="M11.9502 6.30957H34.0498C34.9595 6.30957 35.7002 7.05022 35.7002 7.95996V37.8594C35.7002 38.7691 34.9595 39.5098 34.0498 39.5098H11.9502C11.0405 39.5098 10.2998 38.7691 10.2998 37.8594V7.95996C10.2998 7.05022 11.0405 6.30957 11.9502 6.30957Z" stroke="white" stroke-width="0.6"/>
<path d="M14.2227 19.3086H17.4727C17.5653 19.3086 17.6541 19.3457 17.7197 19.4111C17.7854 19.4768 17.8223 19.5664 17.8223 19.6592C17.8222 19.7519 17.7853 19.8407 17.7197 19.9062C17.6541 19.9718 17.5654 20.0088 17.4727 20.0088H14.2227C13.8779 20.0088 13.5977 20.289 13.5977 20.6338V25.1836C13.5977 25.5284 13.8779 25.8086 14.2227 25.8086H18.7725C19.1172 25.8086 19.3975 25.5284 19.3975 25.1836V23.8838C19.3975 23.7911 19.4345 23.7023 19.5 23.6367C19.5656 23.5711 19.6552 23.5342 19.748 23.5342C19.8407 23.5343 19.9296 23.5712 19.9951 23.6367C20.0606 23.7023 20.0977 23.7911 20.0977 23.8838V25.1836C20.0977 25.9139 19.5028 26.5088 18.7725 26.5088H14.2227C13.4923 26.5088 12.8975 25.9139 12.8975 25.1836V20.6338C12.8975 19.9034 13.4923 19.3086 14.2227 19.3086Z" stroke="white" stroke-width="0.6"/>
<mask id="path-4-inside-1_1237_6679" fill="white">
<path d="M19.7967 19.6665L16.5181 22.6601L15.4947 21.637C15.4347 21.5749 15.363 21.5254 15.2837 21.4913C15.2044 21.4572 15.1191 21.4393 15.0328 21.4386C14.9465 21.4378 14.8609 21.4543 14.781 21.4869C14.7012 21.5196 14.6286 21.5679 14.5675 21.6289C14.5065 21.69 14.4583 21.7625 14.4256 21.8424C14.3929 21.9223 14.3764 22.0079 14.3772 22.0942C14.3779 22.1805 14.3959 22.2658 14.4299 22.3451C14.464 22.4244 14.5135 22.4961 14.5756 22.5561L16.0381 24.0186C16.1563 24.137 16.3156 24.2053 16.4828 24.2091C16.6501 24.2129 16.8123 24.152 16.9358 24.0391L20.6733 20.6266C20.7943 20.5088 20.8648 20.3485 20.8698 20.1797C20.8748 20.0108 20.8139 19.8467 20.7 19.7219C20.5862 19.5972 20.4282 19.5217 20.2596 19.5113C20.091 19.501 19.925 19.5566 19.7967 19.6665ZM32.7477 20.634H22.9977C22.8253 20.634 22.6599 20.7025 22.538 20.8244C22.4161 20.9463 22.3477 21.1116 22.3477 21.284C22.3477 21.4564 22.4161 21.6218 22.538 21.7437C22.6599 21.8656 22.8253 21.934 22.9977 21.934H32.7477C32.92 21.934 33.0854 21.8656 33.2073 21.7437C33.3292 21.6218 33.3977 21.4564 33.3977 21.284C33.3977 21.1116 33.3292 20.9463 33.2073 20.8244C33.0854 20.7025 32.92 20.634 32.7477 20.634ZM22.9977 25.184H28.1977C28.37 25.184 28.5354 25.1156 28.6573 24.9937C28.7792 24.8718 28.8477 24.7064 28.8477 24.534C28.8477 24.3616 28.7792 24.1963 28.6573 24.0744C28.5354 23.9525 28.37 23.884 28.1977 23.884H22.9977C22.8253 23.884 22.6599 23.9525 22.538 24.0744C22.4161 24.1963 22.3477 24.3616 22.3477 24.534C22.3477 24.7064 22.4161 24.8718 22.538 24.9937C22.6599 25.1156 22.8253 25.184 22.9977 25.184ZM18.7727 29.084H14.2227C13.3266 29.084 12.5977 29.813 12.5977 30.709V35.259C12.5977 36.1551 13.3266 36.884 14.2227 36.884H18.7727C19.6687 36.884 20.3977 36.1551 20.3977 35.259V30.709C20.3977 29.813 19.6687 29.084 18.7727 29.084ZM32.7477 30.709H22.9977C22.8253 30.709 22.6599 30.7775 22.538 30.8994C22.4161 31.0213 22.3477 31.1866 22.3477 31.359C22.3477 31.5314 22.4161 31.6968 22.538 31.8187C22.6599 31.9406 22.8253 32.009 22.9977 32.009H32.7477C32.92 32.009 33.0854 31.9406 33.2073 31.8187C33.3292 31.6968 33.3977 31.5314 33.3977 31.359C33.3977 31.1866 33.3292 31.0213 33.2073 30.8994C33.0854 30.7775 32.92 30.709 32.7477 30.709ZM28.1977 33.959H22.9977C22.8253 33.959 22.6599 34.0275 22.538 34.1494C22.4161 34.2713 22.3477 34.4366 22.3477 34.609C22.3477 34.7814 22.4161 34.9468 22.538 35.0687C22.6599 35.1906 22.8253 35.259 22.9977 35.259H28.1977C28.37 35.259 28.5354 35.1906 28.6573 35.0687C28.7792 34.9468 28.8477 34.7814 28.8477 34.609C28.8477 34.4366 28.7792 34.2713 28.6573 34.1494C28.5354 34.0275 28.37 33.959 28.1977 33.959ZM17.7977 16.734H28.1977C28.37 16.734 28.5354 16.6656 28.6573 16.5437C28.7792 16.4218 28.8477 16.2564 28.8477 16.084C28.8477 15.9116 28.7792 15.7463 28.6573 15.6244C28.5354 15.5025 28.37 15.434 28.1977 15.434H26.8977V12.509C26.8977 12.3366 26.8292 12.1713 26.7073 12.0494C26.5854 11.9275 26.42 11.859 26.2477 11.859C26.0753 11.859 25.9099 11.9275 25.788 12.0494C25.6661 12.1713 25.5977 12.3366 25.5977 12.509V15.434H23.6477V12.184H23.9727C24.145 12.184 24.3104 12.1156 24.4323 11.9937C24.5542 11.8718 24.6227 11.7064 24.6227 11.534C24.6227 11.3616 24.5542 11.1963 24.4323 11.0744C24.3104 10.9525 24.145 10.884 23.9727 10.884H22.0227C21.8503 10.884 21.6849 10.9525 21.563 11.0744C21.4411 11.1963 21.3727 11.3616 21.3727 11.534C21.3727 11.7064 21.4411 11.8718 21.563 11.9937C21.6849 12.1156 21.8503 12.184 22.0227 12.184H22.3477V15.434H20.3977V12.509C20.3977 12.3366 20.3292 12.1713 20.2073 12.0494C20.0854 11.9275 19.92 11.859 19.7477 11.859C19.5753 11.859 19.4099 11.9275 19.288 12.0494C19.1661 12.1713 19.0977 12.3366 19.0977 12.509V15.434H17.7977C17.6253 15.434 17.4599 15.5025 17.338 15.6244C17.2161 15.7463 17.1477 15.9116 17.1477 16.084C17.1477 16.2564 17.2161 16.4218 17.338 16.5437C17.4599 16.6656 17.6253 16.734 17.7977 16.734Z"/>
</mask>
<path d="M19.7967 19.6665L16.5181 22.6601L15.4947 21.637C15.4347 21.5749 15.363 21.5254 15.2837 21.4913C15.2044 21.4572 15.1191 21.4393 15.0328 21.4386C14.9465 21.4378 14.8609 21.4543 14.781 21.4869C14.7012 21.5196 14.6286 21.5679 14.5675 21.6289C14.5065 21.69 14.4583 21.7625 14.4256 21.8424C14.3929 21.9223 14.3764 22.0079 14.3772 22.0942C14.3779 22.1805 14.3959 22.2658 14.4299 22.3451C14.464 22.4244 14.5135 22.4961 14.5756 22.5561L16.0381 24.0186C16.1563 24.137 16.3156 24.2053 16.4828 24.2091C16.6501 24.2129 16.8123 24.152 16.9358 24.0391L20.6733 20.6266C20.7943 20.5088 20.8648 20.3485 20.8698 20.1797C20.8748 20.0108 20.8139 19.8467 20.7 19.7219C20.5862 19.5972 20.4282 19.5217 20.2596 19.5113C20.091 19.501 19.925 19.5566 19.7967 19.6665ZM32.7477 20.634H22.9977C22.8253 20.634 22.6599 20.7025 22.538 20.8244C22.4161 20.9463 22.3477 21.1116 22.3477 21.284C22.3477 21.4564 22.4161 21.6218 22.538 21.7437C22.6599 21.8656 22.8253 21.934 22.9977 21.934H32.7477C32.92 21.934 33.0854 21.8656 33.2073 21.7437C33.3292 21.6218 33.3977 21.4564 33.3977 21.284C33.3977 21.1116 33.3292 20.9463 33.2073 20.8244C33.0854 20.7025 32.92 20.634 32.7477 20.634ZM22.9977 25.184H28.1977C28.37 25.184 28.5354 25.1156 28.6573 24.9937C28.7792 24.8718 28.8477 24.7064 28.8477 24.534C28.8477 24.3616 28.7792 24.1963 28.6573 24.0744C28.5354 23.9525 28.37 23.884 28.1977 23.884H22.9977C22.8253 23.884 22.6599 23.9525 22.538 24.0744C22.4161 24.1963 22.3477 24.3616 22.3477 24.534C22.3477 24.7064 22.4161 24.8718 22.538 24.9937C22.6599 25.1156 22.8253 25.184 22.9977 25.184ZM18.7727 29.084H14.2227C13.3266 29.084 12.5977 29.813 12.5977 30.709V35.259C12.5977 36.1551 13.3266 36.884 14.2227 36.884H18.7727C19.6687 36.884 20.3977 36.1551 20.3977 35.259V30.709C20.3977 29.813 19.6687 29.084 18.7727 29.084ZM32.7477 30.709H22.9977C22.8253 30.709 22.6599 30.7775 22.538 30.8994C22.4161 31.0213 22.3477 31.1866 22.3477 31.359C22.3477 31.5314 22.4161 31.6968 22.538 31.8187C22.6599 31.9406 22.8253 32.009 22.9977 32.009H32.7477C32.92 32.009 33.0854 31.9406 33.2073 31.8187C33.3292 31.6968 33.3977 31.5314 33.3977 31.359C33.3977 31.1866 33.3292 31.0213 33.2073 30.8994C33.0854 30.7775 32.92 30.709 32.7477 30.709ZM28.1977 33.959H22.9977C22.8253 33.959 22.6599 34.0275 22.538 34.1494C22.4161 34.2713 22.3477 34.4366 22.3477 34.609C22.3477 34.7814 22.4161 34.9468 22.538 35.0687C22.6599 35.1906 22.8253 35.259 22.9977 35.259H28.1977C28.37 35.259 28.5354 35.1906 28.6573 35.0687C28.7792 34.9468 28.8477 34.7814 28.8477 34.609C28.8477 34.4366 28.7792 34.2713 28.6573 34.1494C28.5354 34.0275 28.37 33.959 28.1977 33.959ZM17.7977 16.734H28.1977C28.37 16.734 28.5354 16.6656 28.6573 16.5437C28.7792 16.4218 28.8477 16.2564 28.8477 16.084C28.8477 15.9116 28.7792 15.7463 28.6573 15.6244C28.5354 15.5025 28.37 15.434 28.1977 15.434H26.8977V12.509C26.8977 12.3366 26.8292 12.1713 26.7073 12.0494C26.5854 11.9275 26.42 11.859 26.2477 11.859C26.0753 11.859 25.9099 11.9275 25.788 12.0494C25.6661 12.1713 25.5977 12.3366 25.5977 12.509V15.434H23.6477V12.184H23.9727C24.145 12.184 24.3104 12.1156 24.4323 11.9937C24.5542 11.8718 24.6227 11.7064 24.6227 11.534C24.6227 11.3616 24.5542 11.1963 24.4323 11.0744C24.3104 10.9525 24.145 10.884 23.9727 10.884H22.0227C21.8503 10.884 21.6849 10.9525 21.563 11.0744C21.4411 11.1963 21.3727 11.3616 21.3727 11.534C21.3727 11.7064 21.4411 11.8718 21.563 11.9937C21.6849 12.1156 21.8503 12.184 22.0227 12.184H22.3477V15.434H20.3977V12.509C20.3977 12.3366 20.3292 12.1713 20.2073 12.0494C20.0854 11.9275 19.92 11.859 19.7477 11.859C19.5753 11.859 19.4099 11.9275 19.288 12.0494C19.1661 12.1713 19.0977 12.3366 19.0977 12.509V15.434H17.7977C17.6253 15.434 17.4599 15.5025 17.338 15.6244C17.2161 15.7463 17.1477 15.9116 17.1477 16.084C17.1477 16.2564 17.2161 16.4218 17.338 16.5437C17.4599 16.6656 17.6253 16.734 17.7977 16.734Z" stroke="white" stroke-width="1.2" mask="url(#path-4-inside-1_1237_6679)"/>
<path d="M23.001 7.93384C23.0281 7.93385 23.0549 7.93746 23.0811 7.9436L23.1572 7.97095L28.3506 10.5667C28.4294 10.6102 28.4886 10.6828 28.5156 10.7688C28.5429 10.8555 28.5348 10.9502 28.4941 11.0315C28.4534 11.1126 28.3825 11.1752 28.2969 11.2053C28.2113 11.2353 28.1167 11.2304 28.0342 11.1926L23.1348 8.74243L23.001 8.67603L22.8662 8.74243L17.9639 11.1936C17.8821 11.2297 17.7894 11.2333 17.7051 11.2034C17.6199 11.1731 17.5493 11.1114 17.5088 11.0305C17.4682 10.9494 17.4612 10.8554 17.4883 10.7688C17.5086 10.7038 17.547 10.6467 17.5986 10.6038L17.6543 10.5657L22.8438 7.96997C22.8924 7.94573 22.9466 7.93384 23.001 7.93384Z" stroke="white" stroke-width="0.6"/>
</svg>
