<svg width="36" height="36" viewBox="0 0 36 36" fill="none" xmlns="http://www.w3.org/2000/svg">
<g clip-path="url(#clip0_1226_14886)">
<path d="M28.1155 16.2459C25.2848 13.4149 20.8486 12.9778 17.5198 15.2017C14.191 17.4257 12.8967 21.6914 14.4285 25.3901C15.9603 29.0888 19.8916 31.1905 23.8181 30.4097C27.7446 29.6289 30.5728 26.1833 30.5731 22.1799C30.5763 21.0774 30.3607 19.9852 29.9389 18.9666C29.517 17.948 28.8973 17.0233 28.1155 16.2459ZM27.2674 27.2658C24.8409 29.6922 21.0383 30.0666 18.1852 28.16C15.3321 26.2534 14.2231 22.597 15.5364 19.4268C16.8497 16.2566 20.2196 14.4555 23.5851 15.1251C26.9506 15.7947 29.3745 18.7484 29.3743 22.1799C29.3769 23.1249 29.192 24.061 28.8304 24.934C28.4687 25.807 27.9375 26.5996 27.2674 27.2658Z" fill="#002F57"/>
<path fill-rule="evenodd" clip-rule="evenodd" d="M22.1825 16.1861C21.3951 16.1838 20.615 16.3378 19.8876 16.6393C19.1601 16.9408 18.4998 17.3837 17.9448 17.9423C17.8683 18.0162 17.8127 18.1092 17.784 18.2116C17.7553 18.3141 17.7543 18.4223 17.7812 18.5253C17.8082 18.6282 17.8621 18.7221 17.9373 18.7973C18.0126 18.8726 18.1065 18.9264 18.2094 18.9533C18.3124 18.9803 18.4206 18.9793 18.523 18.9506C18.6255 18.9219 18.7184 18.8664 18.7923 18.7898C19.2363 18.3429 19.7646 17.9886 20.3466 17.7474C20.9285 17.5063 21.5526 17.383 22.1825 17.3848C22.5136 17.3848 22.7819 17.1165 22.7819 16.7855C22.7819 16.4544 22.5136 16.1861 22.1825 16.1861Z" fill="#002F57"/>
<path d="M33.2901 29.8974C33.1411 29.7495 32.9558 29.6434 32.7528 29.5898C32.5499 29.5363 32.3364 29.5371 32.1338 29.5923L30.9698 28.4247C34.0266 24.1383 33.5366 18.2704 29.8112 14.5504C29.5715 14.3106 29.3161 14.0816 29.056 13.8658C29.2166 13.7432 29.3614 13.6011 29.4869 13.4427C30.2832 12.3866 30.08 10.8862 29.0314 10.0801L16.4439 0.489724C15.5836 -0.160637 14.396 -0.160637 13.5357 0.489724L9.59463 3.49208V2.39943C9.59463 1.73738 9.0579 1.20065 8.39584 1.20065H4.79943C4.13738 1.20065 3.60065 1.73738 3.60065 2.39943V8.05954L0.946493 10.0813C0.126736 10.7046 -0.203362 11.7819 0.126376 12.7575C0.456114 13.7331 1.37199 14.3891 2.40186 14.3874V29.3723C2.40186 30.0344 2.93859 30.5711 3.60065 30.5711H15.404C19.1623 33.6139 24.4887 33.7762 28.4253 30.9679L29.5923 32.1385C29.5388 32.3402 29.539 32.5524 29.593 32.754C29.6469 32.9556 29.7527 33.1395 29.8998 33.2876L31.8778 35.2656C32.1735 35.5717 32.5453 35.7935 32.955 35.9084C33.3648 36.0233 33.7977 36.0271 34.2094 35.9193C34.6211 35.8116 34.9967 35.5962 35.2976 35.2953C35.5986 34.9944 35.814 34.6188 35.9218 34.2071C36.0295 33.7954 36.0258 33.3624 35.9109 32.9526C35.796 32.5429 35.5741 32.1711 35.2679 31.8754L33.2901 29.8974ZM4.79943 2.39943H8.39584V4.40562L4.79943 7.14606V2.39943ZM1.44701 12.7192C1.04801 12.1903 1.14935 11.4387 1.67421 11.0343L14.2616 1.44398C14.4703 1.2832 14.7264 1.196 14.9898 1.196C15.2533 1.196 15.5094 1.2832 15.7181 1.44398L28.3055 11.0343C28.8287 11.4375 28.9311 12.186 28.5357 12.715C28.4013 12.8913 28.2202 13.0265 28.013 13.1052C27.2282 12.5986 26.3801 12.1973 25.4907 11.9118L15.3525 4.18256C15.2481 4.10303 15.1205 4.05997 14.9892 4.05997C14.858 4.05997 14.7304 4.10303 14.626 4.18256L3.13131 12.9446C2.6028 13.343 1.85224 13.2425 1.44701 12.7192ZM3.60065 14.0607C3.68927 14.0122 3.77475 13.9581 3.85657 13.8989L14.9892 5.41258L22.8737 11.424C22.6436 11.4096 22.4146 11.3904 22.182 11.3904C20.7646 11.3865 19.3605 11.6638 18.051 12.2062C16.7414 12.7486 15.5525 13.5454 14.5529 14.5504C14.0528 15.0507 13.6023 15.5983 13.2079 16.1855H10.7934C9.8003 16.1855 8.99524 16.9906 8.99524 17.9837V29.3723H3.60065V14.0607ZM10.194 17.9838C10.194 17.6527 10.4624 17.3844 10.7934 17.3844H12.5227C10.5508 21.3363 11.1994 26.0925 14.1572 29.3723H10.194V17.9838ZM15.401 28.9605C12.1659 25.7251 11.6669 20.6549 14.2091 16.8509C16.7513 13.0468 21.6267 11.5682 25.8536 13.3195C30.0805 15.0707 32.4818 19.5639 31.5888 24.0513C30.6958 28.5386 26.7574 31.7703 22.182 31.7698C20.9221 31.7733 19.674 31.5268 18.51 31.0446C17.346 30.5624 16.2893 29.854 15.401 28.9605ZM29.8111 29.8087C29.9532 29.666 30.0802 29.5132 30.2139 29.3639L31.1693 30.323L30.3206 31.1706L29.3652 30.2115C29.5144 30.079 29.6679 29.9513 29.8111 29.8087ZM34.4181 34.4157C33.9438 34.8687 33.1972 34.8687 32.723 34.4157L30.745 32.4376L32.4401 30.7425L34.4181 32.7206C34.8861 33.1887 34.8861 33.9475 34.4181 34.4157Z" fill="#002F57"/>
</g>
<defs>
<clipPath id="clip0_1226_14886">
<rect width="36" height="36" fill="white"/>
</clipPath>
</defs>
</svg>
