<svg width="46" height="46" viewBox="0 0 46 46" fill="none" xmlns="http://www.w3.org/2000/svg">
<rect width="46" height="46" rx="10" fill="#002F57"/>
<path fill-rule="evenodd" clip-rule="evenodd" d="M35.8375 10.4702L30.5298 5.16253C30.4787 5.11098 30.418 5.07008 30.351 5.04218C30.2841 5.01428 30.2122 4.99995 30.1397 5H12.2847C11.0263 5 10 6.02159 10 7.28007V39.0893C10 40.3477 11.0263 41.3694 12.2847 41.3694H33.7199C34.9783 41.3694 36 40.3478 36 39.0893V10.8603C36.0001 10.7877 35.9857 10.7159 35.9578 10.649C35.9299 10.582 35.889 10.5213 35.8375 10.4702ZM34.8994 39.0892C34.8994 39.7394 34.37 40.2688 33.7199 40.2688H12.2847C11.6346 40.2688 11.1052 39.7394 11.1052 39.0892V7.27999C11.1052 6.62988 11.6346 6.10047 12.2847 6.10047H29.5871V9.13279C29.5871 10.3913 30.6087 11.4129 31.8671 11.4129H34.8994V39.0892ZM34.1193 10.3124L30.6876 6.88065V9.13287C30.6876 9.78298 31.217 10.3124 31.8671 10.3124H34.1193Z" fill="white" stroke="white" stroke-width="0.6"/>
</svg>
