<svg width="40" height="40" viewBox="0 0 40 40" fill="none" xmlns="http://www.w3.org/2000/svg">
<path d="M22.252 30.0795C22.4897 30.0795 22.683 29.8863 22.683 29.6485V28.4496H22.9789L23.8252 29.8691C23.8635 29.9332 23.9178 29.9864 23.9827 30.0232C24.0477 30.0601 24.1211 30.0795 24.1959 30.0795C24.2706 30.0795 24.3467 30.0601 24.4164 30.0185C24.4651 29.9895 24.5075 29.9512 24.5414 29.9058C24.5752 29.8604 24.5998 29.8088 24.6137 29.7538C24.6276 29.6989 24.6305 29.6418 24.6223 29.5858C24.6141 29.5298 24.5949 29.4759 24.5658 29.4273L23.9107 28.3296C24.3331 28.1299 24.6262 27.701 24.6262 27.2039C24.6262 26.5172 24.0673 25.9583 23.3805 25.9583H22.2512C22.0135 25.9583 21.8202 26.1515 21.8202 26.3893V29.6485C21.8209 29.8863 22.0142 30.0795 22.252 30.0795ZM23.7648 27.2039C23.7648 27.4158 23.5924 27.5875 23.3812 27.5875H22.683V26.8196H23.3812C23.5924 26.8203 23.7648 26.992 23.7648 27.2039ZM25.2619 29.6485V26.3893C25.2619 26.1515 25.4552 25.9583 25.6929 25.9583H27.6368C27.8746 25.9583 28.0679 26.1515 28.0679 26.3893C28.0679 26.6271 27.8746 26.8203 27.6368 26.8203H26.124V27.5882H27.4788C27.7166 27.5882 27.9098 27.7815 27.9098 28.0193C27.9098 28.257 27.7166 28.4503 27.4788 28.4503H26.124V29.2182H27.6368C27.8746 29.2182 28.0679 29.4115 28.0679 29.6492C28.0679 29.887 27.8746 30.0803 27.6368 30.0803H25.6929C25.4552 30.0795 25.2619 29.8863 25.2619 29.6485ZM28.6533 29.6773V26.418C28.6533 26.2241 28.7826 26.0538 28.9701 26.0028C29.1569 25.9511 29.3552 26.0308 29.455 26.1975L30.5979 28.1134V26.418C30.5979 26.1802 30.7912 25.987 31.029 25.987C31.2667 25.987 31.46 26.1802 31.46 26.418V29.6773C31.46 29.8712 31.3307 30.0415 31.1432 30.0925C31.1051 30.1032 31.067 30.1083 31.029 30.1083C30.8803 30.1083 30.738 30.0307 30.659 29.8978L29.5161 27.9819V29.6773C29.5161 29.915 29.3228 30.1083 29.0851 30.1083C28.8473 30.1083 28.6533 29.915 28.6533 29.6773ZM31.9197 26.3893C31.9197 26.1515 32.113 25.9583 32.3508 25.9583H35.0295C35.2673 25.9583 35.4606 26.1515 35.4606 26.3893C35.4606 26.6271 35.2673 26.8203 35.0295 26.8203H34.1208V29.6485C34.1208 29.8863 33.9276 30.0795 33.6898 30.0795C33.452 30.0795 33.2588 29.8863 33.2588 29.6485V26.8203H32.35C32.1123 26.8203 31.9197 26.6271 31.9197 26.3893ZM35.9706 32.0048C36.7105 32.0048 37.3132 31.4028 37.3132 30.6621V25.4037C37.3132 24.6638 36.7112 24.0611 35.9706 24.0611H33.4578V17.7897L35.0626 19.0706C35.1395 19.1316 35.2343 19.1647 35.3313 19.1647C35.3471 19.1647 35.3636 19.164 35.3794 19.1618C35.4929 19.1489 35.5971 19.0914 35.6682 19.0023L37.2184 17.0591C37.2537 17.0149 37.28 16.9642 37.2957 16.9098C37.3114 16.8554 37.3162 16.7984 37.3098 16.7422C37.3035 16.686 37.2861 16.6315 37.2587 16.582C37.2313 16.5325 37.1945 16.4888 37.1502 16.4536L20.2686 2.98491C20.1923 2.92388 20.0975 2.89063 19.9999 2.89063C19.9022 2.89062 19.8075 2.92388 19.7312 2.98491L2.8496 16.4536C2.76033 16.5249 2.70301 16.6287 2.69021 16.7422C2.67742 16.8558 2.7102 16.9698 2.78135 17.0591L4.33159 19.0023C4.40271 19.0914 4.50687 19.1489 4.62037 19.1618C4.73387 19.1747 4.84809 19.1417 4.93717 19.0706L6.542 17.7897V33.6843H3.14772C2.90994 33.6843 2.7167 33.8775 2.7167 34.1153V36.6785C2.7167 36.9162 2.90994 37.1095 3.14772 37.1095H36.8535C37.0913 37.1095 37.2845 36.9162 37.2845 36.6785V34.1153C37.2845 33.8775 37.0913 33.6843 36.8535 33.6843H33.4578V32.0048H35.9706ZM36.4512 25.4037V30.6621C36.4512 30.9272 36.2357 31.1427 35.9706 31.1427H21.3109C21.0458 31.1427 20.8303 30.9272 20.8303 30.6621V25.4037C20.8303 25.1386 21.0458 24.9231 21.3109 24.9231H35.9713C36.2357 24.9238 36.4512 25.1393 36.4512 25.4037ZM29.1368 36.2474H28.1447V32.0048H29.1368V36.2474ZM28.1447 24.0618V23.3844C28.1447 23.1107 28.3674 22.888 28.6411 22.888C28.9148 22.888 29.1375 23.1107 29.1375 23.3844V24.0618H28.1447ZM28.6404 22.0259C27.8919 22.0259 27.282 22.6351 27.282 23.3844V24.0618H26.2059V21.8234H28.9802V22.0712C28.8717 22.0425 28.7582 22.0259 28.6404 22.0259ZM28.9802 20.9613H26.2066V18.743H28.9802V20.9613ZM25.3445 20.9613H22.5709V18.743H25.3445V20.9613ZM22.5709 21.8234H25.3445V24.0618H22.5709V21.8234ZM4.73747 18.1281L3.72457 16.8587L20.0006 3.87281L36.2766 16.8587L35.2637 18.1281L20.2693 6.16512C20.191 6.10262 20.0954 6.07101 20.0006 6.07101C19.9058 6.07101 19.8102 6.10262 19.7319 6.16512L4.73747 18.1281ZM7.40548 17.1022L20.0006 7.05302L32.5957 17.1022V24.0618H29.9988V23.3844C29.9988 23.1566 29.9421 22.9426 29.8422 22.7536V18.312C29.8422 18.0742 29.649 17.881 29.4112 17.881H22.1399C21.9021 17.881 21.7089 18.0742 21.7089 18.312V24.0618H21.3102C20.5703 24.0618 19.9676 24.6638 19.9676 25.4044V30.6629C19.9676 31.4028 20.5695 32.0055 21.3102 32.0055H27.282V33.685H18.6443V20.151C18.6443 19.9132 18.4511 19.72 18.2133 19.72H10.1906C9.95281 19.72 9.75957 19.9132 9.75957 20.151V33.685H7.40548V17.1022ZM17.7823 33.6843H10.6216V20.582H17.7823V33.6843ZM3.57874 34.5463H27.2827V36.2474H3.57874V34.5463ZM36.4225 36.2474H29.9988V34.5463H36.4225V36.2474ZM32.5957 33.6843H29.9988V32.0048H32.5957V33.6843Z" fill="#002F57"/>
</svg>
