<svg width="40" height="40" viewBox="0 0 40 40" fill="none" xmlns="http://www.w3.org/2000/svg">
<path d="M20 2.56055C26.1572 2.56055 31.1511 7.62722 31.1514 13.7803C31.1514 16.0999 30.443 18.325 29.1025 20.2158L29.1016 20.2168C28.9887 20.377 29.4557 19.6501 25.6953 25.5508L25.4893 25.874L25.8682 25.9326C27.6465 26.2059 30.0303 26.7467 31.9619 27.6592C33.9132 28.581 35.2969 29.8284 35.2969 31.4697C35.2968 32.4065 34.8389 33.2458 34.001 33.9893C33.16 34.7354 31.9497 35.3713 30.4893 35.8857C27.5698 36.9142 23.713 37.4385 20 37.4385C16.0284 37.4385 12.2903 36.8806 9.47461 35.875C7.45835 35.1549 6.26541 34.3416 5.57812 33.5693C4.89549 32.8023 4.70316 32.0659 4.70312 31.4697C4.70312 29.8288 6.08856 28.5813 8.04102 27.6592C9.97359 26.7465 12.3572 26.2053 14.1318 25.9326L14.5107 25.874L14.3047 25.5508L10.9648 20.3105L10.957 20.2988L10.7051 19.9346C9.48496 18.0964 8.84863 15.9534 8.84863 13.7803C8.84886 7.61743 13.8629 2.56055 20 2.56055ZM24.4707 27.4727L20.6631 33.4473C20.5921 33.5587 20.4938 33.6503 20.3779 33.7139C20.2621 33.7774 20.1321 33.8105 20 33.8105C19.8679 33.8105 19.7379 33.7774 19.6221 33.7139C19.5062 33.6503 19.4079 33.5587 19.3369 33.4473L15.5293 27.4727L15.4443 27.3398L15.2881 27.3584C12.2399 27.7375 10.0116 28.4153 8.53809 29.1562C7.80195 29.5264 7.24528 29.9168 6.86914 30.3008C6.49791 30.6798 6.27637 31.0813 6.27637 31.4697C6.27644 32.031 6.69443 32.5742 7.33496 33.0557C7.98888 33.547 8.93453 34.0208 10.123 34.4346C12.5036 35.2632 15.901 35.8652 20 35.8652C24.1229 35.8652 27.5198 35.2593 29.8945 34.4287C31.0806 34.0139 32.0226 33.5398 32.6729 33.0488C33.3096 32.5681 33.7236 32.027 33.7236 31.4697C33.7236 31.0813 33.5021 30.6798 33.1309 30.3008C32.7547 29.9167 32.1981 29.5264 31.4619 29.1562C29.9883 28.4153 27.7602 27.7375 24.7119 27.3584L24.5557 27.3398L24.4707 27.4727ZM20 4.13379C14.7059 4.13379 10.4221 8.46075 10.4219 13.7803C10.4219 15.7627 11.0385 17.7354 12.248 19.3994C12.2574 19.4123 12.2658 19.426 12.2744 19.4395L19.7891 31.2305L20 31.5605L20.2109 31.2305C24.2341 24.9175 26.1149 21.9626 27.0029 20.5703C27.8939 19.1733 27.7828 19.3534 27.8242 19.2988L27.8291 19.292C28.9731 17.672 29.5781 15.7656 29.5781 13.7803C29.5779 8.46246 25.2832 4.13379 20 4.13379Z" fill="#002F57" stroke="#FAFAFA" stroke-width="0.5"/>
<path d="M20.0029 8.84961C22.7222 8.84979 24.9346 11.0629 24.9346 13.7822C24.9344 16.5014 22.7221 18.7137 20.0029 18.7139C17.2836 18.7139 15.0705 16.5015 15.0703 13.7822C15.0703 11.0628 17.2835 8.84961 20.0029 8.84961ZM20.0029 10.4229C18.1503 10.4229 16.6436 11.9296 16.6436 13.7822C16.6437 15.6347 18.1505 17.1416 20.0029 17.1416C21.8553 17.1414 23.3621 15.6345 23.3623 13.7822C23.3623 11.9298 21.8554 10.423 20.0029 10.4229Z" fill="#002F57" stroke="#FAFAFA" stroke-width="0.5"/>
</svg>
