<svg width="40" height="40" viewBox="0 0 40 40" fill="none" xmlns="http://www.w3.org/2000/svg">
<path d="M6.72707 17.0074V15.978C6.72707 15.7914 6.88148 15.637 7.06807 15.637C7.25465 15.637 7.40907 15.7914 7.40907 15.978V17.0074C7.40263 17.4514 6.7335 17.4514 6.72707 17.0074ZM8.96608 17.3484C9.15266 17.3484 9.30707 17.194 9.30707 17.0074V15.978C9.30707 15.7914 9.15266 15.637 8.96608 15.637C8.77949 15.637 8.62508 15.7914 8.62508 15.978V17.0074C8.62508 17.194 8.77949 17.3484 8.96608 17.3484ZM10.8641 17.3484C11.0507 17.3484 11.2051 17.194 11.2051 17.0074V15.978C11.2051 15.7914 11.0507 15.637 10.8641 15.637C10.6775 15.637 10.5231 15.7914 10.5231 15.978V17.0074C10.5295 17.194 10.6775 17.3484 10.8641 17.3484ZM7.06807 20.5139C7.25465 20.5139 7.40907 20.3595 7.40907 20.1729V19.1435C7.40907 18.9569 7.25465 18.8025 7.06807 18.8025C6.88148 18.8025 6.72707 18.9569 6.72707 19.1435V20.1729C6.72707 20.366 6.88148 20.5139 7.06807 20.5139ZM8.96608 20.5139C9.15266 20.5139 9.30707 20.3595 9.30707 20.1729V19.1435C9.30707 18.9569 9.15266 18.8025 8.96608 18.8025C8.77949 18.8025 8.62508 18.9569 8.62508 19.1435V20.1729C8.62508 20.366 8.77949 20.5139 8.96608 20.5139ZM10.8641 20.5139C11.0507 20.5139 11.2051 20.3595 11.2051 20.1729V19.1435C11.2051 18.9569 11.0507 18.8025 10.8641 18.8025C10.6775 18.8025 10.5231 18.9569 10.5231 19.1435V20.1729C10.5295 20.366 10.6775 20.5139 10.8641 20.5139ZM7.06807 23.6859C7.25465 23.6859 7.40907 23.5314 7.40907 23.3449V22.3154C7.40907 22.1288 7.25465 21.9744 7.06807 21.9744C6.88148 21.9744 6.72707 22.1288 6.72707 22.3154V23.3449C6.72707 23.5314 6.88148 23.6859 7.06807 23.6859ZM8.96608 23.6859C9.15266 23.6859 9.30707 23.5314 9.30707 23.3449V22.3154C9.30707 22.1288 9.15266 21.9744 8.96608 21.9744C8.77949 21.9744 8.62508 22.1288 8.62508 22.3154V23.3449C8.62508 23.5314 8.77949 23.6859 8.96608 23.6859ZM10.8641 23.6859C11.0507 23.6859 11.2051 23.5314 11.2051 23.3449V22.3154C11.2051 22.1288 11.0507 21.9744 10.8641 21.9744C10.6775 21.9744 10.5231 22.1288 10.5231 22.3154V23.3449C10.5295 23.5314 10.6775 23.6859 10.8641 23.6859ZM28.4609 17.3484C28.6474 17.3484 28.8019 17.194 28.8019 17.0074V15.978C28.8019 15.7914 28.6474 15.637 28.4609 15.637C28.2743 15.637 28.1199 15.7914 28.1199 15.978V17.0074C28.1199 17.194 28.2743 17.3484 28.4609 17.3484ZM30.3589 17.3484C30.5455 17.3484 30.6999 17.194 30.6999 17.0074V15.978C30.6999 15.7914 30.5455 15.637 30.3589 15.637C30.1723 15.637 30.0179 15.7914 30.0179 15.978V17.0074C30.0243 17.194 30.1723 17.3484 30.3589 17.3484ZM32.2569 17.3484C32.4435 17.3484 32.5979 17.194 32.5979 17.0074V15.978C32.5979 15.7914 32.4435 15.637 32.2569 15.637C32.0703 15.637 31.9159 15.7914 31.9159 15.978V17.0074C31.9223 17.194 32.0703 17.3484 32.2569 17.3484ZM28.4609 20.5139C28.6474 20.5139 28.8019 20.3595 28.8019 20.1729V19.1435C28.8019 18.9569 28.6474 18.8025 28.4609 18.8025C28.2743 18.8025 28.1199 18.9569 28.1199 19.1435V20.1729C28.1199 20.366 28.2743 20.5139 28.4609 20.5139ZM30.3589 20.5139C30.5455 20.5139 30.6999 20.3595 30.6999 20.1729V19.1435C30.6999 18.9569 30.5455 18.8025 30.3589 18.8025C30.1723 18.8025 30.0179 18.9569 30.0179 19.1435V20.1729C30.0243 20.366 30.1723 20.5139 30.3589 20.5139ZM32.2569 20.5139C32.4435 20.5139 32.5979 20.3595 32.5979 20.1729V19.1435C32.5979 18.9569 32.4435 18.8025 32.2569 18.8025C32.0703 18.8025 31.9159 18.9569 31.9159 19.1435V20.1729C31.9223 20.366 32.0703 20.5139 32.2569 20.5139ZM15.5544 9.11945C15.3678 9.11945 15.2134 9.27387 15.2134 9.46045V13.3787C15.2134 13.5653 15.3678 13.7197 15.5544 13.7197C15.741 13.7197 15.8954 13.5653 15.8954 13.3787V9.46045C15.8954 9.27387 15.741 9.11945 15.5544 9.11945ZM17.6068 9.11945C17.4203 9.11945 17.2658 9.27387 17.2658 9.46045V13.3787C17.2658 13.5653 17.4203 13.7197 17.6068 13.7197C17.7934 13.7197 17.9478 13.5653 17.9478 13.3787V9.46045C17.9478 9.27387 17.7999 9.11945 17.6068 9.11945ZM19.6657 9.11945C19.4791 9.11945 19.3247 9.27387 19.3247 9.46045V13.3787C19.3247 13.5653 19.4791 13.7197 19.6657 13.7197C19.8523 13.7197 20.0067 13.5653 20.0067 13.3787V9.46045C20.0003 9.27387 19.8523 9.11945 19.6657 9.11945ZM21.7181 9.11945C21.5315 9.11945 21.3771 9.27387 21.3771 9.46045V13.3787C21.3771 13.5653 21.5315 13.7197 21.7181 13.7197C21.9047 13.7197 22.0591 13.5653 22.0591 13.3787V9.46045C22.0591 9.27387 21.9047 9.11945 21.7181 9.11945ZM23.7705 9.11945C23.584 9.11945 23.4295 9.27387 23.4295 9.46045V13.3787C23.4295 13.5653 23.584 13.7197 23.7705 13.7197C23.9571 13.7197 24.1115 13.5653 24.1115 13.3787V9.46045C24.1115 9.27387 23.9571 9.11945 23.7705 9.11945ZM36.3489 31.1299C36.291 31.2135 36.1944 31.2715 36.0915 31.2779C33.7238 31.458 31.9416 32.4167 30.0629 33.4333C28.4737 34.2954 26.8266 35.1833 24.8064 35.5371C24.1694 35.8267 23.5196 36.084 22.8312 36.2191C22.7025 36.2191 22.5867 36.1484 22.5288 36.0326C21.8082 34.5914 21.0876 33.1437 20.3606 31.7025H3.93475C3.74816 31.7025 3.59375 31.5481 3.59375 31.3615V29.0646C3.59375 28.878 3.74816 28.7236 3.93475 28.7236H4.86767V14.183H3.93475C3.74816 14.183 3.59375 14.0285 3.59375 13.842V11.8732C3.59375 11.6866 3.74816 11.5322 3.93475 11.5322H12.3889V6.73247H12.1187C11.9321 6.73247 11.7777 6.57805 11.7777 6.39147V4.12029C11.7777 3.93371 11.9321 3.7793 12.1187 3.7793H27.2127C27.3993 3.7793 27.5537 3.93371 27.5537 4.12029V6.39147C27.5537 6.57805 27.3993 6.73247 27.2127 6.73247H26.9425V11.5322H35.3966C35.5832 11.5322 35.7376 11.6866 35.7376 11.8732V13.842C35.7376 14.0285 35.5832 14.183 35.3966 14.183H34.4637V24.5673L36.3939 30.8468C36.4196 30.9369 36.4068 31.0463 36.3489 31.1299ZM26.9425 13.501H35.0556V12.2077H26.9425V13.501ZM26.9425 22.1996C27.9526 21.6141 29.0464 21.0479 30.2045 20.8614C30.6098 20.9193 30.8929 21.8651 31.0537 22.1803C31.0602 22.1868 32.8552 21.8007 32.9968 21.7878C33.415 21.7042 33.7817 21.8651 33.7882 22.3283C33.8589 19.6196 33.7946 16.8916 33.7946 14.183H26.9489V22.1996H26.9425ZM12.4597 6.05691H26.8717V4.46129H12.4597V6.05691ZM23.8156 19.3237V18.5902H15.5158V19.3237H23.8156ZM20.0003 19.9992V26.8578C21.0426 26.4267 22.0012 25.8284 22.902 25.1592V19.9992H20.0003ZM18.4046 27.5076C18.5655 27.2181 19.048 27.2567 19.3247 27.1151V19.9992H16.423V28.7236H18.8743L18.4111 27.7971C18.366 27.7071 18.3596 27.5977 18.4046 27.5076ZM23.5968 24.6381C24.4783 23.9625 25.3404 23.2612 26.2605 22.6371V6.73247H13.0645V28.7236H15.741V19.9992H15.1748C14.9882 19.9992 14.8338 19.8448 14.8338 19.6582V18.2492C14.8338 18.0626 14.9882 17.9082 15.1748 17.9082H24.1566C24.3432 17.9082 24.4976 18.0626 24.4976 18.2492V19.6582C24.4976 19.8448 24.3432 19.9992 24.1566 19.9992H23.5904C23.584 21.5434 23.5389 23.0939 23.5968 24.6381ZM5.20866 13.501H12.3889V12.2077H4.26931V13.501H5.20866ZM5.54323 14.183V28.7236H12.3889V14.183H5.54323ZM20.0196 31.0205C19.7622 30.5058 19.4727 29.9203 19.2089 29.4056H4.26931V31.0205H20.0196ZM28.3515 32.3845C29.9214 31.1299 31.7293 29.811 33.801 29.2062C32.5335 26.6841 31.2532 24.1169 29.9921 21.5884C29.857 21.3182 26.936 22.9653 26.6529 23.184C25.5013 24.0526 24.3946 24.9598 23.1979 25.764C22.1428 26.4717 20.515 27.7585 19.2153 27.8422C20.4442 30.4029 21.7631 32.9314 23.0178 35.4792C25.0251 34.9388 26.7945 33.6198 28.3515 32.3845ZM35.6218 30.6409C35.1264 29.0389 33.5758 23.9818 33.1062 22.4634C32.5142 22.5278 31.9287 22.6371 31.3561 22.8044C32.4049 24.9083 33.5308 27.1602 34.5924 29.2705C34.8047 29.8367 33.9619 29.8045 33.6337 29.9718C31.0859 30.8082 29.3101 32.5968 27.2191 34.1024C30.0565 32.8735 32.2633 31.0334 35.6218 30.6409ZM30.0822 27.81C30.2752 28.2089 30.8865 27.9194 30.6934 27.5205L29.2458 24.4708C29.0528 24.0719 28.4416 24.3614 28.6346 24.7603L30.0822 27.81ZM29.5611 29.9847C29.812 29.9911 29.9857 29.6951 29.857 29.4764L27.1355 24.6767C27.0454 24.5158 26.8331 24.4579 26.6722 24.548C26.5114 24.6381 26.4535 24.8504 26.5436 25.0112L29.2651 29.811C29.3294 29.9268 29.4388 29.9847 29.5611 29.9847Z" fill="#002F57"/>
</svg>
