<svg width="40" height="40" viewBox="0 0 40 40" fill="none" xmlns="http://www.w3.org/2000/svg">
<path d="M37.2657 19.9998C37.2658 19.903 37.2381 19.8081 37.1858 19.7266C37.1336 19.6451 37.0591 19.5802 36.971 19.5398L28.1174 15.4699L36.971 11.3999C37.3546 11.2236 37.3548 10.6567 36.971 10.4804L20.2041 2.7727C20.136 2.74144 20.0617 2.72569 19.9867 2.7266C19.9118 2.72751 19.8379 2.74505 19.7705 2.77797L15.6996 4.66193C15.1145 4.94788 16.0703 5.81424 16.6596 5.52667L19.9993 3.79269L22.8582 5.10678L19.9735 6.43309L16.2564 4.72941C16.0707 4.64426 15.9025 4.56916 15.6996 4.66193L3.01474 10.4804C2.63095 10.6565 2.63041 11.2236 3.01447 11.3999L11.8681 15.4702L10.1328 16.2677C9.54082 16.5397 9.96016 17.4611 10.5555 17.1873L13.052 16.0397C13.061 16.0358 13.0694 16.0308 13.0779 16.0263L19.7814 19.1076C19.8477 19.138 19.9198 19.1537 19.9928 19.1537C20.0657 19.1537 20.1378 19.138 20.2041 19.1076L26.9058 16.0271L35.548 19.9998L19.9927 27.1503L4.43719 19.9998L10.7895 17.0798C11.3815 16.8079 11.1512 15.7993 10.5555 16.0734L3.0142 19.5398C2.63095 19.7162 2.63041 20.2831 3.0142 20.4595L11.8681 24.5294L3.0142 28.5994C2.63095 28.7757 2.63041 29.3427 3.0142 29.519L19.7814 37.2266C19.8478 37.2568 19.9198 37.2725 19.9928 37.2725C20.0657 37.2725 20.1378 37.2568 20.2041 37.2266L26.9058 34.1459C27.4975 33.874 27.2078 32.893 26.6118 33.167L19.9927 36.2098L4.43719 29.0593L13.0798 25.0864L19.7814 28.1671C19.8478 28.1974 19.9198 28.213 19.9928 28.213C20.0657 28.213 20.1378 28.1974 20.2041 28.1671L26.9361 25.0724C26.9752 25.1088 27.0198 25.1388 27.0684 25.1612L35.548 29.0591L25.9889 33.4534C25.3969 33.7257 25.8162 34.6469 26.4116 34.3731L36.971 29.519C37.3546 29.3427 37.3548 28.7757 36.971 28.5994L28.1174 24.5294L36.9711 20.4595C37.0591 20.4191 37.1336 20.3543 37.1858 20.2728C37.238 20.1913 37.2658 20.0966 37.2657 19.9998ZM24.0698 16.2166L21.2043 14.8993L24.3537 13.4515L27.2089 14.7736L24.0698 16.2166ZM12.7798 14.7751L15.6455 13.4579L18.7811 14.8993L15.9154 16.2166L12.7798 14.7751ZM8.51422 12.8145L11.38 11.4972L14.4339 12.9009L11.5682 14.2182L8.51422 12.8145ZM11.7189 7.60117L14.5652 8.91898L11.38 10.3833L8.51982 9.06843L11.7189 7.60117ZM15.7723 9.47799L18.8151 10.887L15.6455 12.344L12.5916 10.9403L15.7723 9.47799ZM31.471 9.06607L28.5992 10.3862L25.4588 8.94691L28.3354 7.62465L31.471 9.06607ZM27.3862 10.9437L24.3553 12.3369L21.231 10.8902L24.2459 9.50437L27.3862 10.9437ZM28.4176 14.2179L25.5627 12.8959L28.5997 11.4998L31.4694 12.8151L28.4176 14.2179ZM20.0238 10.3312L16.981 8.92242L19.9741 7.54639L23.0324 8.94826L20.0238 10.3312ZM16.8571 12.9009L20.0223 11.4458L23.1466 12.8925L19.9927 14.3424L16.8571 12.9009ZM32.6824 12.2576L29.8124 10.9424L32.6826 9.62299L35.548 10.9403L32.6824 12.2576ZM24.0698 5.66363L27.1238 7.06767L24.2454 8.39081L21.187 6.98886L24.0698 5.66363ZM15.7739 8.36341L12.929 7.04614L15.9046 5.68138L18.7606 6.99048L15.7739 8.36341ZM7.30714 9.62481L10.1684 10.9403L7.30262 12.2576L4.43821 10.9408L7.30714 9.62481ZM19.9927 18.0908L17.127 16.7735L19.9927 15.4562L22.8583 16.7735L19.9927 18.0908Z" fill="#002F57"/>
</svg>
