<svg width="40" height="40" viewBox="0 0 40 40" fill="none" xmlns="http://www.w3.org/2000/svg">
<path d="M3.19531 28.362V34.1409H36.8003V16.2228M36.8003 18.5435V9.12305L30.0387 9.12311C19.9451 9.12311 20.7381 22.3081 10.6529 22.3081H3.19531V28.9564" stroke="#002F57" stroke-width="0.8" stroke-miterlimit="10" stroke-linecap="round" stroke-linejoin="round"/>
<path d="M36.7996 31.4359H27.9141V26.7028H36.7996M36.7996 24.6743H27.9141V19.9413H36.7996M34.8866 17.9128H27.9141L28.231 16.5605V13.1797H34.5696V16.5605L34.8866 17.9128Z" stroke="#002F57" stroke-width="0.8" stroke-miterlimit="10" stroke-linecap="round" stroke-linejoin="round"/>
<path d="M30.3867 13.8556V11.8589C30.3867 11.311 30.8077 10.838 31.3551 10.8139C31.9361 10.7883 32.4152 11.2518 32.4152 11.8271V13.8556M24.6295 34.1403V29.4072H16.0622V34.1403M20.3458 29.5908V34.1403M13.3575 34.1403V29.4072H3.19531M19.8533 27.5816H20.8383M3.19531 19.6028H17.2347M3.19531 16.8982H19.4995M10.8495 14.1936H21.4343M3.19531 14.1936H11.512M3.19531 11.489H23.8138M3.87147 11.489V22.1723M12.699 11.489C13.7081 8.22461 16.75 5.85299 20.3458 5.85299C22.7024 5.49307 26.4551 7.72444 27.1989 9.61768M6.59584 29.4072V32.1118M9.97662 29.4072V32.1118" stroke="#002F57" stroke-width="0.8" stroke-miterlimit="10" stroke-linecap="round" stroke-linejoin="round"/>
</svg>
