<svg width="40" height="40" viewBox="0 0 40 40" fill="none" xmlns="http://www.w3.org/2000/svg">
<path d="M27.9068 14.1698L28.087 12.6449L20.7319 20L28.0871 27.3552L27.9068 25.8302C27.8907 25.6939 27.9294 25.5567 28.0144 25.4489C28.0994 25.3411 28.2238 25.2715 28.3601 25.2554C28.4964 25.2393 28.6336 25.278 28.7414 25.363C28.8492 25.448 28.9188 25.5724 28.9349 25.7087L29.2903 28.7155C29.2995 28.7932 29.291 28.8719 29.2653 28.9459C29.2397 29.0198 29.1977 29.0869 29.1423 29.1422C29.087 29.1975 29.0199 29.2396 28.946 29.2652C28.8721 29.2909 28.7933 29.2994 28.7156 29.2903L25.7088 28.9349C25.6413 28.9269 25.576 28.9057 25.5167 28.8725C25.4574 28.8393 25.4052 28.7948 25.3631 28.7414C25.321 28.688 25.2898 28.6269 25.2714 28.5614C25.2529 28.496 25.2475 28.4276 25.2555 28.3601C25.2634 28.2926 25.2846 28.2273 25.3178 28.168C25.351 28.1087 25.3955 28.0564 25.4489 28.0144C25.5023 27.9723 25.5635 27.9411 25.6289 27.9226C25.6943 27.9042 25.7628 27.8988 25.8303 27.9068L27.3552 28.0871L20 20.7319L12.6448 28.0871L14.1698 27.9068C14.3061 27.8907 14.4433 27.9294 14.5511 28.0144C14.6589 28.0994 14.7285 28.2238 14.7446 28.3601C14.7607 28.4964 14.722 28.6336 14.637 28.7414C14.552 28.8492 14.4276 28.9188 14.2913 28.9349L11.2845 29.2903C11.2068 29.2995 11.1281 29.2909 11.0542 29.2653C10.9803 29.2396 10.9131 29.1976 10.8578 29.1423C10.8025 29.087 10.7604 29.0198 10.7348 28.9459C10.7092 28.872 10.7006 28.7933 10.7098 28.7156L11.0652 25.7088C11.0731 25.6412 11.0943 25.5759 11.1275 25.5166C11.1606 25.4573 11.2052 25.4051 11.2586 25.363C11.312 25.3209 11.3731 25.2897 11.4386 25.2713C11.504 25.2528 11.5724 25.2475 11.6399 25.2555C11.7075 25.2635 11.7727 25.2847 11.832 25.3179C11.8913 25.3511 11.9435 25.3956 11.9856 25.449C12.0277 25.5024 12.0589 25.5635 12.0773 25.6289C12.0958 25.6943 12.1012 25.7628 12.0932 25.8303L11.913 27.3552L19.268 20L11.9129 12.6449L12.0932 14.1699C12.1017 14.2425 12.0948 14.3162 12.0729 14.386C12.051 14.4558 12.0145 14.5201 11.9658 14.5747C11.9172 14.6294 11.8575 14.6731 11.7908 14.703C11.724 14.7329 11.6516 14.7484 11.5785 14.7483C11.4518 14.7481 11.3296 14.7015 11.235 14.6173C11.1404 14.5331 11.08 14.4172 11.0651 14.2914L10.7097 11.2846C10.7005 11.2069 10.709 11.1281 10.7347 11.0542C10.7603 10.9803 10.8024 10.9131 10.8577 10.8578C10.913 10.8025 10.9801 10.7604 11.0541 10.7348C11.128 10.7092 11.2067 10.7006 11.2844 10.7098L14.2913 11.0652C14.4276 11.0813 14.552 11.1509 14.637 11.2587C14.722 11.3665 14.7607 11.5036 14.7446 11.6399C14.7285 11.7763 14.6589 11.9006 14.5511 11.9856C14.4433 12.0706 14.3061 12.1093 14.1698 12.0932L12.6449 11.913L20 19.268L27.3551 11.9129L25.8302 12.0932C25.5464 12.1269 25.289 11.9238 25.2554 11.6399C25.2474 11.5724 25.2528 11.504 25.2713 11.4386C25.2898 11.3731 25.3209 11.312 25.363 11.2586C25.4051 11.2052 25.4573 11.1607 25.5166 11.1275C25.5759 11.0943 25.6412 11.0731 25.7087 11.0651L28.7155 10.7097C28.7932 10.7005 28.872 10.709 28.9459 10.7347C29.0198 10.7603 29.0869 10.8024 29.1423 10.8577C29.1976 10.913 29.2396 10.9801 29.2653 11.0541C29.2909 11.128 29.2995 11.2067 29.2903 11.2844L28.9349 14.2912C28.9187 14.4276 28.8491 14.5519 28.7413 14.6369C28.6336 14.7219 28.4964 14.7606 28.3601 14.7445C28.2926 14.7365 28.2273 14.7154 28.168 14.6822C28.1087 14.649 28.0565 14.6044 28.0144 14.5511C27.9723 14.4977 27.9412 14.4365 27.9227 14.3711C27.9042 14.3057 27.8988 14.2373 27.9068 14.1698ZM8.83726 3.95508V8.31968C8.83726 8.45695 8.78273 8.5886 8.68567 8.68567C8.5886 8.78273 8.45695 8.83726 8.31968 8.83726H3.95508C3.81781 8.83726 3.68616 8.78273 3.5891 8.68567C3.49203 8.5886 3.4375 8.45695 3.4375 8.31968V3.95508C3.4375 3.81781 3.49203 3.68616 3.5891 3.5891C3.68616 3.49203 3.81781 3.4375 3.95508 3.4375H8.31968C8.45695 3.4375 8.5886 3.49203 8.68567 3.5891C8.78273 3.68616 8.83726 3.81781 8.83726 3.95508ZM7.80211 4.47266H4.47266V7.80211H7.80211V4.47266ZM8.83726 31.6803V36.0449C8.83726 36.1822 8.78273 36.3138 8.68567 36.4109C8.5886 36.508 8.45695 36.5625 8.31968 36.5625H3.95508C3.81781 36.5625 3.68616 36.508 3.5891 36.4109C3.49203 36.3138 3.4375 36.1822 3.4375 36.0449V31.6803C3.4375 31.543 3.49203 31.4114 3.5891 31.3143C3.68616 31.2173 3.81781 31.1627 3.95508 31.1627H8.31968C8.45695 31.1627 8.5886 31.2173 8.68567 31.3143C8.78273 31.4114 8.83726 31.543 8.83726 31.6803ZM7.80211 32.1979H4.47266V35.5273H7.80211V32.1979ZM36.5625 3.95508V8.31968C36.5625 8.45695 36.508 8.5886 36.4109 8.68567C36.3138 8.78273 36.1822 8.83726 36.0449 8.83726H31.6803C31.543 8.83726 31.4114 8.78273 31.3143 8.68567C31.2173 8.5886 31.1627 8.45695 31.1627 8.31968V3.95508C31.1627 3.81781 31.2173 3.68616 31.3143 3.5891C31.4114 3.49203 31.543 3.4375 31.6803 3.4375H36.0449C36.1822 3.4375 36.3138 3.49203 36.4109 3.5891C36.508 3.68616 36.5625 3.81781 36.5625 3.95508ZM35.5273 4.47266H32.1979V7.80211H35.5273V4.47266ZM36.5625 31.6803V36.0449C36.5625 36.1822 36.508 36.3138 36.4109 36.4109C36.3138 36.508 36.1822 36.5625 36.0449 36.5625H31.6803C31.543 36.5625 31.4114 36.508 31.3143 36.4109C31.2173 36.3138 31.1627 36.1822 31.1627 36.0449V31.6803C31.1627 31.543 31.2173 31.4114 31.3143 31.3143C31.4114 31.2173 31.543 31.1627 31.6803 31.1627H36.0449C36.1822 31.1627 36.3138 31.2173 36.4109 31.3143C36.508 31.4114 36.5625 31.543 36.5625 31.6803ZM35.5273 32.1979H32.1979V35.5273H35.5273V32.1979ZM10.3945 6.65496H12.5768C12.7141 6.65496 12.8457 6.60043 12.9428 6.50336C13.0399 6.4063 13.0944 6.27465 13.0944 6.13738C13.0944 6.00011 13.0399 5.86846 12.9428 5.7714C12.8457 5.67433 12.7141 5.6198 12.5768 5.6198H10.3945C10.2573 5.6198 10.1256 5.67433 10.0285 5.7714C9.93148 5.86846 9.87695 6.00011 9.87695 6.13738C9.87695 6.27465 9.93148 6.4063 10.0285 6.50336C10.1256 6.60043 10.2573 6.65496 10.3945 6.65496ZM14.6517 6.65496H16.834C16.9712 6.65496 17.1029 6.60043 17.2 6.50336C17.297 6.4063 17.3516 6.27465 17.3516 6.13738C17.3516 6.00011 17.297 5.86846 17.2 5.7714C17.1029 5.67433 16.9712 5.6198 16.834 5.6198H14.6517C14.5144 5.6198 14.3828 5.67433 14.2857 5.7714C14.1886 5.86846 14.1341 6.00011 14.1341 6.13738C14.1341 6.27465 14.1886 6.4063 14.2857 6.50336C14.3828 6.60043 14.5144 6.65496 14.6517 6.65496ZM18.9088 6.65496H21.0911C21.2284 6.65496 21.36 6.60043 21.4571 6.50336C21.5542 6.4063 21.6087 6.27465 21.6087 6.13738C21.6087 6.00011 21.5542 5.86846 21.4571 5.7714C21.36 5.67433 21.2284 5.6198 21.0911 5.6198H18.9088C18.7715 5.6198 18.6399 5.67433 18.5428 5.7714C18.4458 5.86846 18.3912 6.00011 18.3912 6.13738C18.3912 6.27465 18.4458 6.4063 18.5428 6.50336C18.6399 6.60043 18.7715 6.65496 18.9088 6.65496ZM23.166 6.65496H25.3483C25.4856 6.65496 25.6172 6.60043 25.7143 6.50336C25.8114 6.4063 25.8659 6.27465 25.8659 6.13738C25.8659 6.00011 25.8114 5.86846 25.7143 5.7714C25.6172 5.67433 25.4856 5.6198 25.3483 5.6198H23.166C23.0288 5.6198 22.8971 5.67433 22.8 5.7714C22.703 5.86846 22.6484 6.00011 22.6484 6.13738C22.6484 6.27465 22.703 6.4063 22.8 6.50336C22.8971 6.60043 23.0288 6.65496 23.166 6.65496ZM29.6055 5.6198H27.4232C27.2859 5.6198 27.1543 5.67433 27.0572 5.7714C26.9601 5.86846 26.9056 6.00011 26.9056 6.13738C26.9056 6.27465 26.9601 6.4063 27.0572 6.50336C27.1543 6.60043 27.2859 6.65496 27.4232 6.65496H29.6055C29.7427 6.65496 29.8744 6.60043 29.9715 6.50336C30.0685 6.4063 30.1231 6.27465 30.1231 6.13738C30.1231 6.00011 30.0685 5.86846 29.9715 5.7714C29.8744 5.67433 29.7427 5.6198 29.6055 5.6198ZM12.5769 33.345H10.3946C10.2573 33.345 10.1257 33.3996 10.0286 33.4966C9.93154 33.5937 9.87701 33.7253 9.87701 33.8626C9.87701 33.9999 9.93154 34.1315 10.0286 34.2286C10.1257 34.3257 10.2573 34.3802 10.3946 34.3802H12.5769C12.7142 34.3802 12.8458 34.3257 12.9429 34.2286C13.0399 34.1315 13.0945 33.9999 13.0945 33.8626C13.0945 33.7253 13.0399 33.5937 12.9429 33.4966C12.8458 33.3996 12.7142 33.345 12.5769 33.345ZM16.834 33.345H14.6517C14.5144 33.345 14.3828 33.3996 14.2857 33.4966C14.1886 33.5937 14.1341 33.7253 14.1341 33.8626C14.1341 33.9999 14.1886 34.1315 14.2857 34.2286C14.3828 34.3257 14.5144 34.3802 14.6517 34.3802H16.834C16.9712 34.3802 17.1029 34.3257 17.2 34.2286C17.297 34.1315 17.3516 33.9999 17.3516 33.8626C17.3516 33.7253 17.297 33.5937 17.2 33.4966C17.1029 33.3996 16.9712 33.345 16.834 33.345ZM21.0912 33.345H18.9089C18.7716 33.345 18.64 33.3996 18.5429 33.4966C18.4458 33.5937 18.3913 33.7253 18.3913 33.8626C18.3913 33.9999 18.4458 34.1315 18.5429 34.2286C18.64 34.3257 18.7716 34.3802 18.9089 34.3802H21.0912C21.2285 34.3802 21.3601 34.3257 21.4572 34.2286C21.5542 34.1315 21.6088 33.9999 21.6088 33.8626C21.6088 33.7253 21.5542 33.5937 21.4572 33.4966C21.3601 33.3996 21.2285 33.345 21.0912 33.345ZM25.3483 33.345H23.166C23.0288 33.345 22.8971 33.3996 22.8 33.4966C22.703 33.5937 22.6484 33.7253 22.6484 33.8626C22.6484 33.9999 22.703 34.1315 22.8 34.2286C22.8971 34.3257 23.0288 34.3802 23.166 34.3802H25.3483C25.4856 34.3802 25.6172 34.3257 25.7143 34.2286C25.8114 34.1315 25.8659 33.9999 25.8659 33.8626C25.8659 33.7253 25.8114 33.5937 25.7143 33.4966C25.6172 33.3996 25.4856 33.345 25.3483 33.345ZM29.6055 33.345H27.4232C27.2859 33.345 27.1543 33.3996 27.0572 33.4966C26.9601 33.5937 26.9056 33.7253 26.9056 33.8626C26.9056 33.9999 26.9601 34.1315 27.0572 34.2286C27.1543 34.3257 27.2859 34.3802 27.4232 34.3802H29.6055C29.7427 34.3802 29.8744 34.3257 29.9715 34.2286C30.0685 34.1315 30.1231 33.9999 30.1231 33.8626C30.1231 33.7253 30.0685 33.5937 29.9715 33.4966C29.8744 33.3996 29.7427 33.345 29.6055 33.345ZM33.8626 13.0945C33.9999 13.0945 34.1315 13.0399 34.2286 12.9429C34.3257 12.8458 34.3802 12.7142 34.3802 12.5769V10.3946C34.3802 10.2573 34.3257 10.1257 34.2286 10.0286C34.1315 9.93154 33.9999 9.87701 33.8626 9.87701C33.7253 9.87701 33.5937 9.93154 33.4966 10.0286C33.3996 10.1257 33.345 10.2573 33.345 10.3946V12.5769C33.345 12.7142 33.3996 12.8458 33.4966 12.9429C33.5937 13.0399 33.7253 13.0945 33.8626 13.0945ZM33.345 16.834C33.345 16.9712 33.3996 17.1029 33.4966 17.2C33.5937 17.297 33.7253 17.3516 33.8626 17.3516C33.9999 17.3516 34.1315 17.297 34.2286 17.2C34.3257 17.1029 34.3802 16.9712 34.3802 16.834V14.6517C34.3802 14.5144 34.3257 14.3828 34.2286 14.2857C34.1315 14.1886 33.9999 14.1341 33.8626 14.1341C33.7253 14.1341 33.5937 14.1886 33.4966 14.2857C33.3996 14.3828 33.345 14.5144 33.345 14.6517V16.834ZM33.345 21.0912C33.345 21.2285 33.3996 21.3601 33.4966 21.4572C33.5937 21.5542 33.7253 21.6088 33.8626 21.6088C33.9999 21.6088 34.1315 21.5542 34.2286 21.4572C34.3257 21.3601 34.3802 21.2285 34.3802 21.0912V18.9089C34.3802 18.7716 34.3257 18.64 34.2286 18.5429C34.1315 18.4458 33.9999 18.3913 33.8626 18.3913C33.7253 18.3913 33.5937 18.4458 33.4966 18.5429C33.3996 18.64 33.345 18.7716 33.345 18.9089V21.0912ZM33.345 25.3483C33.345 25.4856 33.3996 25.6172 33.4966 25.7143C33.5937 25.8114 33.7253 25.8659 33.8626 25.8659C33.9999 25.8659 34.1315 25.8114 34.2286 25.7143C34.3257 25.6172 34.3802 25.4856 34.3802 25.3483V23.166C34.3802 23.0288 34.3257 22.8971 34.2286 22.8C34.1315 22.703 33.9999 22.6484 33.8626 22.6484C33.7253 22.6484 33.5937 22.703 33.4966 22.8C33.3996 22.8971 33.345 23.0288 33.345 23.166V25.3483ZM33.345 29.6055C33.345 29.7427 33.3996 29.8744 33.4966 29.9715C33.5937 30.0685 33.7253 30.1231 33.8626 30.1231C33.9999 30.1231 34.1315 30.0685 34.2286 29.9715C34.3257 29.8744 34.3802 29.7427 34.3802 29.6055V27.4232C34.3802 27.2859 34.3257 27.1543 34.2286 27.0572C34.1315 26.9601 33.9999 26.9056 33.8626 26.9056C33.7253 26.9056 33.5937 26.9601 33.4966 27.0572C33.3996 27.1543 33.345 27.2859 33.345 27.4232V29.6055ZM6.13738 13.0945C6.27465 13.0945 6.4063 13.0399 6.50336 12.9429C6.60043 12.8458 6.65496 12.7142 6.65496 12.5769V10.3946C6.65496 10.2573 6.60043 10.1257 6.50336 10.0286C6.4063 9.93154 6.27465 9.87701 6.13738 9.87701C6.00011 9.87701 5.86846 9.93154 5.7714 10.0286C5.67433 10.1257 5.6198 10.2573 5.6198 10.3946V12.5769C5.6198 12.7142 5.67433 12.8458 5.7714 12.9429C5.86846 13.0399 6.00011 13.0945 6.13738 13.0945ZM5.6198 16.834C5.6198 16.9712 5.67433 17.1029 5.7714 17.2C5.86846 17.297 6.00011 17.3516 6.13738 17.3516C6.27465 17.3516 6.4063 17.297 6.50336 17.2C6.60043 17.1029 6.65496 16.9712 6.65496 16.834V14.6517C6.65496 14.5144 6.60043 14.3828 6.50336 14.2857C6.4063 14.1886 6.27465 14.1341 6.13738 14.1341C6.00011 14.1341 5.86846 14.1886 5.7714 14.2857C5.67433 14.3828 5.6198 14.5144 5.6198 14.6517V16.834ZM5.6198 21.0912C5.6198 21.2285 5.67433 21.3601 5.7714 21.4572C5.86846 21.5542 6.00011 21.6088 6.13738 21.6088C6.27465 21.6088 6.4063 21.5542 6.50336 21.4572C6.60043 21.3601 6.65496 21.2285 6.65496 21.0912V18.9089C6.65496 18.7716 6.60043 18.64 6.50336 18.5429C6.4063 18.4458 6.27465 18.3913 6.13738 18.3913C6.00011 18.3913 5.86846 18.4458 5.7714 18.5429C5.67433 18.64 5.6198 18.7716 5.6198 18.9089V21.0912ZM5.6198 25.3483C5.6198 25.4856 5.67433 25.6172 5.7714 25.7143C5.86846 25.8114 6.00011 25.8659 6.13738 25.8659C6.27465 25.8659 6.4063 25.8114 6.50336 25.7143C6.60043 25.6172 6.65496 25.4856 6.65496 25.3483V23.166C6.65496 23.0288 6.60043 22.8971 6.50336 22.8C6.4063 22.703 6.27465 22.6484 6.13738 22.6484C6.00011 22.6484 5.86846 22.703 5.7714 22.8C5.67433 22.8971 5.6198 23.0288 5.6198 23.166V25.3483ZM5.6198 29.6055C5.6198 29.7427 5.67433 29.8744 5.7714 29.9715C5.86846 30.0685 6.00011 30.1231 6.13738 30.1231C6.27465 30.1231 6.4063 30.0685 6.50336 29.9715C6.60043 29.8744 6.65496 29.7427 6.65496 29.6055V27.4232C6.65496 27.2859 6.60043 27.1543 6.50336 27.0572C6.4063 26.9601 6.27465 26.9056 6.13738 26.9056C6.00011 26.9056 5.86846 26.9601 5.7714 27.0572C5.67433 27.1543 5.6198 27.2859 5.6198 27.4232V29.6055Z" fill="#002F57"/>
</svg>
