<svg width="36" height="36" viewBox="0 0 36 36" fill="none" xmlns="http://www.w3.org/2000/svg">
<g clip-path="url(#clip0_1226_14898)">
<mask id="path-1-inside-1_1226_14898" fill="white">
<path d="M11.0497 35.2266C11.0497 35.3757 10.9905 35.5188 10.885 35.6243C10.7795 35.7298 10.6364 35.7891 10.4872 35.7891H1.50469C0.791297 35.7891 0.210938 35.2087 0.210938 34.4953V28.3878C0.210938 27.6744 0.791367 27.0941 1.50469 27.0941C1.65387 27.0941 1.79695 27.1533 1.90244 27.2588C2.00792 27.3643 2.06719 27.5074 2.06719 27.6566C2.06719 27.8058 2.00792 27.9488 1.90244 28.0543C1.79695 28.1598 1.65387 28.2191 1.50469 28.2191C1.41321 28.2191 1.33594 28.2964 1.33594 28.3878V34.4953C1.33594 34.5868 1.41328 34.6641 1.50469 34.6641H10.4872C10.6364 34.6641 10.7795 34.7233 10.885 34.8288C10.9905 34.9343 11.0497 35.0774 11.0497 35.2266ZM26.4902 28.8643L24.2519 35.4086C24.214 35.5196 24.1422 35.616 24.0468 35.6842C23.9514 35.7524 23.837 35.7891 23.7197 35.7891H20.7744C20.6866 35.7891 20.6001 35.7685 20.5216 35.7291C20.4432 35.6897 20.3751 35.6324 20.3228 35.562C20.2705 35.4915 20.2353 35.4098 20.2202 35.3233C20.2052 35.2368 20.2105 35.148 20.2359 35.064L23.0762 25.6535C23.3278 24.8202 24.0228 24.2567 24.89 24.1827L28.4325 23.8807V21.4369H22.5008C21.4635 21.4369 20.6196 20.593 20.6196 19.5557C20.6196 18.5183 21.4635 17.6743 22.5008 17.6743H27.3936C27.7413 17.6743 28.0219 17.518 28.2049 17.2223L28.6821 16.4509C29.097 15.7804 29.6136 15.3105 30.2245 15.042C29.3115 14.6276 28.6747 13.708 28.6747 12.6418C28.6747 11.1889 29.8568 10.0068 31.3097 10.0068C32.7627 10.0068 33.9448 11.1889 33.9448 12.6418C33.9448 13.6481 33.3776 14.5241 32.5462 14.9678C33.5435 15.3674 34.2681 16.3415 34.2681 17.4473V25.4178C34.2681 26.9624 33.0115 28.219 31.467 28.219H27.3931C26.9725 28.219 26.6266 28.4663 26.4904 28.8643H26.4902ZM31.3096 14.1518C32.1422 14.1518 32.8196 13.4744 32.8196 12.6418C32.8196 11.8091 32.1422 11.1317 31.3096 11.1317C30.477 11.1317 29.7996 11.8091 29.7996 12.6418C29.7996 13.4744 30.477 14.1518 31.3096 14.1518ZM27.3929 27.0939H31.4667C32.391 27.0939 33.1429 26.342 33.1429 25.4178V17.4472C33.1429 16.6083 32.415 15.8996 31.5534 15.8996C30.7297 15.8996 30.1213 16.2629 29.6387 17.0428L29.1615 17.8142C28.7741 18.4402 28.1297 18.7992 27.3935 18.7992H22.5008C22.0837 18.7992 21.7445 19.1386 21.7445 19.5556C21.7445 19.9726 22.0837 20.3119 22.5008 20.3119H28.8443L30.0004 19.6444C30.0644 19.6069 30.1352 19.5824 30.2087 19.5723C30.2822 19.5623 30.357 19.5669 30.4287 19.5858C30.5004 19.6048 30.5677 19.6378 30.6266 19.6828C30.6855 19.7279 30.735 19.7842 30.7721 19.8484C30.8092 19.9126 30.8332 19.9836 30.8427 20.0572C30.8523 20.1307 30.8472 20.2054 30.8278 20.277C30.8083 20.3486 30.7749 20.4157 30.7295 20.4743C30.684 20.5329 30.6274 20.582 30.5629 20.6186L29.5575 21.1991V24.3973C29.5575 24.5382 29.5046 24.674 29.4093 24.7778C29.314 24.8816 29.1832 24.9458 29.0428 24.9578L24.9855 25.3036C24.5815 25.3381 24.2704 25.5904 24.1532 25.9786L21.5317 34.664H23.3176L25.4258 28.5001C25.718 27.6459 26.4901 27.0939 27.3929 27.0939ZM15.7641 35.064C15.7894 35.148 15.7948 35.2368 15.7797 35.3233C15.7646 35.4098 15.7295 35.4915 15.6771 35.562C15.6248 35.6324 15.5567 35.6897 15.4783 35.7291C15.3999 35.7685 15.3133 35.7891 15.2255 35.7891H12.2803C12.163 35.7891 12.0486 35.7524 11.9532 35.6842C11.8578 35.616 11.786 35.5196 11.7481 35.4086L9.50977 28.8643C9.37357 28.4663 9.02777 28.219 8.60702 28.219H4.53326C2.9887 28.219 1.73208 26.9624 1.73208 25.4178V17.4473C1.73208 16.3415 2.45665 15.3674 3.45396 14.9678C2.62266 14.5241 2.05537 13.6481 2.05537 12.6418C2.05537 11.1889 3.23747 10.0068 4.69041 10.0068C6.14334 10.0068 7.32551 11.1889 7.32551 12.6418C7.32551 13.708 6.68862 14.6277 5.77561 15.042C6.38655 15.3106 6.90314 15.7804 7.31798 16.4509L7.79527 17.2223C7.97829 17.518 8.25884 17.6743 8.60653 17.6743H13.4992C14.5366 17.6743 15.3806 18.5183 15.3806 19.5557C15.3806 20.5931 14.5366 21.4369 13.4992 21.4369H7.56752V23.8807L11.1101 24.1827C11.9774 24.2567 12.6724 24.8202 12.9239 25.6534L15.7642 35.0639L15.7641 35.064ZM4.69034 14.1519C5.52298 14.1519 6.20044 13.4745 6.20044 12.6418C6.20044 11.8092 5.52298 11.1318 4.69034 11.1318C3.8577 11.1318 3.1803 11.8092 3.1803 12.6418C3.1803 13.4745 3.8577 14.1519 4.69034 14.1519ZM14.4682 34.6641L11.8467 25.9786C11.7296 25.5904 11.4185 25.3382 11.0145 25.3037L6.95714 24.9578C6.81674 24.9459 6.68596 24.8816 6.59065 24.7778C6.49534 24.6741 6.44245 24.5383 6.44245 24.3974V21.1992L5.43706 20.6188C5.30786 20.5442 5.2136 20.4213 5.17499 20.2772C5.13638 20.1331 5.15659 19.9796 5.23118 19.8504C5.2681 19.7864 5.31727 19.7304 5.37587 19.6854C5.43447 19.6404 5.50136 19.6074 5.57272 19.5883C5.64407 19.5692 5.71849 19.5643 5.79173 19.5739C5.86497 19.5836 5.93559 19.6076 5.99956 19.6445L7.15563 20.312H13.4992C13.9163 20.312 14.2555 19.9728 14.2555 19.5557C14.2555 19.1387 13.9163 18.7994 13.4992 18.7994H8.60646C7.87029 18.7994 7.22595 18.4404 6.83852 17.8143L6.36124 17.043C5.87862 16.263 5.2702 15.8997 4.44663 15.8997C3.58495 15.8997 2.85708 16.6084 2.85708 17.4473V25.4179C2.85708 26.3422 3.609 27.0941 4.53326 27.0941H8.60702C9.50984 27.0941 10.2819 27.646 10.5742 28.5003L12.6824 34.6642H14.4682V34.6641ZM34.4952 27.094C34.3461 27.094 34.203 27.1533 34.0975 27.2588C33.992 27.3643 33.9327 27.5073 33.9327 27.6565C33.9327 27.8057 33.992 27.9488 34.0975 28.0543C34.203 28.1597 34.3461 28.219 34.4952 28.219C34.5867 28.219 34.664 28.2963 34.664 28.3878V34.4952C34.664 34.5867 34.5866 34.664 34.4952 34.664H25.5126C25.3634 34.664 25.2204 34.7233 25.1149 34.8287C25.0094 34.9342 24.9501 35.0773 24.9501 35.2265C24.9501 35.3757 25.0094 35.5187 25.1149 35.6242C25.2204 35.7297 25.3634 35.789 25.5126 35.789H34.4952C35.2086 35.789 35.789 35.2086 35.789 34.4952V28.3878C35.789 27.6744 35.2086 27.094 34.4952 27.094ZM19.1131 34.664H18.5624V22.9526H24.4723C24.6214 22.9526 24.7645 22.8933 24.87 22.7878C24.9755 22.6824 25.0348 22.5393 25.0348 22.3901C25.0348 22.2409 24.9755 22.0978 24.87 21.9924C24.7645 21.8869 24.6214 21.8276 24.4723 21.8276H11.5276C11.3784 21.8276 11.2353 21.8869 11.1298 21.9924C11.0244 22.0978 10.9651 22.2409 10.9651 22.3901C10.9651 22.5393 11.0244 22.6824 11.1298 22.7878C11.2353 22.8933 11.3784 22.9526 11.5276 22.9526H17.4374V34.664H16.8867C16.7375 34.664 16.5944 34.7233 16.4889 34.8287C16.3834 34.9342 16.3242 35.0773 16.3242 35.2265C16.3242 35.3757 16.3834 35.5187 16.4889 35.6242C16.5944 35.7297 16.7375 35.789 16.8867 35.789H19.1131C19.2623 35.789 19.4054 35.7297 19.5109 35.6242C19.6164 35.5187 19.6756 35.3757 19.6756 35.2265C19.6756 35.0773 19.6164 34.9342 19.5109 34.8287C19.4054 34.7233 19.2623 34.664 19.1131 34.664ZM6.80752 8.50739V2.56493C6.80752 1.26696 7.86354 0.210938 9.16151 0.210938H17.516C18.8139 0.210938 19.87 1.26696 19.87 2.56493V8.50746C19.87 9.75867 18.8885 10.7847 17.6551 10.857V11.8546C17.6551 12.3874 18.0886 12.821 18.6214 12.821H22.679C22.8282 12.821 22.9712 12.8803 23.0768 12.9857L24.4168 14.3258V13.3835C24.4168 13.2343 24.4761 13.0912 24.5815 12.9857C24.687 12.8803 24.8301 12.821 24.9793 12.821H25.7512C26.2841 12.821 26.7176 12.3874 26.7176 11.8546V6.78326C26.7176 6.25043 26.2841 5.81688 25.7512 5.81688H20.889C20.7398 5.81688 20.5967 5.75762 20.4913 5.65213C20.3858 5.54664 20.3265 5.40357 20.3265 5.25438C20.3265 5.1052 20.3858 4.96212 20.4913 4.85664C20.5967 4.75115 20.7398 4.69188 20.889 4.69188H25.7512C26.9044 4.69188 27.8426 5.63006 27.8426 6.78326V11.8546C27.8426 13.0078 26.9044 13.946 25.7512 13.946H25.5418V15.6838C25.5418 15.795 25.5088 15.9038 25.447 15.9963C25.3852 16.0888 25.2973 16.1609 25.1946 16.2035C25.0918 16.246 24.9787 16.2572 24.8695 16.2355C24.7604 16.2138 24.6602 16.1602 24.5815 16.0815L22.4461 13.946H18.6214C17.4683 13.946 16.5301 13.0078 16.5301 11.8546V10.8614H12.9945L10.4639 13.392C10.3852 13.4706 10.285 13.5241 10.1759 13.5458C10.0668 13.5675 9.95373 13.5563 9.85097 13.5137C9.74821 13.4712 9.66038 13.3991 9.59856 13.3066C9.53674 13.2142 9.50371 13.1055 9.50365 12.9942V10.8614H9.16158C7.86361 10.8614 6.80759 9.80543 6.80759 8.50746L6.80752 8.50739ZM7.93252 8.50739C7.93252 9.18499 8.48384 9.73631 9.16151 9.73631H10.0661C10.2153 9.73631 10.3583 9.79558 10.4638 9.90106C10.5693 10.0066 10.6286 10.1496 10.6286 10.2988V11.6362L12.3637 9.90105C12.4693 9.79558 12.6123 9.73632 12.7615 9.73631H17.516C18.1936 9.73631 18.745 9.18499 18.745 8.50739V2.56493C18.745 1.88726 18.1936 1.33594 17.516 1.33594H9.16151C8.48384 1.33594 7.93252 1.88726 7.93252 2.56493V8.50739ZM10.2858 3.74365H16.3917C16.5409 3.74365 16.6839 3.68439 16.7894 3.5789C16.8949 3.47341 16.9542 3.33033 16.9542 3.18115C16.9542 3.03196 16.8949 2.88889 16.7894 2.7834C16.6839 2.67791 16.5409 2.61865 16.3917 2.61865H10.2858C10.1366 2.61865 9.99355 2.67791 9.88806 2.7834C9.78257 2.88889 9.7233 3.03196 9.7233 3.18115C9.7233 3.33033 9.78257 3.47341 9.88806 3.5789C9.99355 3.68439 10.1366 3.74365 10.2858 3.74365ZM10.2858 6.09863H16.3917C16.5409 6.09863 16.6839 6.03936 16.7894 5.93387C16.8949 5.82838 16.9542 5.68531 16.9542 5.53613C16.9542 5.38694 16.8949 5.24387 16.7894 5.13838C16.6839 5.03289 16.5409 4.97363 16.3917 4.97363H10.2858C10.1366 4.97363 9.99355 5.03289 9.88806 5.13838C9.78257 5.24387 9.7233 5.38694 9.7233 5.53613C9.7233 5.68531 9.78257 5.82838 9.88806 5.93387C9.99355 6.03936 10.1366 6.09863 10.2858 6.09863ZM10.2858 8.45353H16.3917C16.5409 8.45353 16.6839 8.39427 16.7894 8.28878C16.8949 8.18329 16.9542 8.04022 16.9542 7.89103C16.9542 7.74185 16.8949 7.59877 16.7894 7.49328C16.6839 7.38779 16.5409 7.32853 16.3917 7.32853H10.2858C10.1366 7.32853 9.99355 7.38779 9.88806 7.49328C9.78257 7.59877 9.7233 7.74185 9.7233 7.89103C9.7233 8.04022 9.78257 8.18329 9.88806 8.28878C9.99355 8.39427 10.1366 8.45353 10.2858 8.45353Z"/>
</mask>
<path d="M11.0497 35.2266C11.0497 35.3757 10.9905 35.5188 10.885 35.6243C10.7795 35.7298 10.6364 35.7891 10.4872 35.7891H1.50469C0.791297 35.7891 0.210938 35.2087 0.210938 34.4953V28.3878C0.210938 27.6744 0.791367 27.0941 1.50469 27.0941C1.65387 27.0941 1.79695 27.1533 1.90244 27.2588C2.00792 27.3643 2.06719 27.5074 2.06719 27.6566C2.06719 27.8058 2.00792 27.9488 1.90244 28.0543C1.79695 28.1598 1.65387 28.2191 1.50469 28.2191C1.41321 28.2191 1.33594 28.2964 1.33594 28.3878V34.4953C1.33594 34.5868 1.41328 34.6641 1.50469 34.6641H10.4872C10.6364 34.6641 10.7795 34.7233 10.885 34.8288C10.9905 34.9343 11.0497 35.0774 11.0497 35.2266ZM26.4902 28.8643L24.2519 35.4086C24.214 35.5196 24.1422 35.616 24.0468 35.6842C23.9514 35.7524 23.837 35.7891 23.7197 35.7891H20.7744C20.6866 35.7891 20.6001 35.7685 20.5216 35.7291C20.4432 35.6897 20.3751 35.6324 20.3228 35.562C20.2705 35.4915 20.2353 35.4098 20.2202 35.3233C20.2052 35.2368 20.2105 35.148 20.2359 35.064L23.0762 25.6535C23.3278 24.8202 24.0228 24.2567 24.89 24.1827L28.4325 23.8807V21.4369H22.5008C21.4635 21.4369 20.6196 20.593 20.6196 19.5557C20.6196 18.5183 21.4635 17.6743 22.5008 17.6743H27.3936C27.7413 17.6743 28.0219 17.518 28.2049 17.2223L28.6821 16.4509C29.097 15.7804 29.6136 15.3105 30.2245 15.042C29.3115 14.6276 28.6747 13.708 28.6747 12.6418C28.6747 11.1889 29.8568 10.0068 31.3097 10.0068C32.7627 10.0068 33.9448 11.1889 33.9448 12.6418C33.9448 13.6481 33.3776 14.5241 32.5462 14.9678C33.5435 15.3674 34.2681 16.3415 34.2681 17.4473V25.4178C34.2681 26.9624 33.0115 28.219 31.467 28.219H27.3931C26.9725 28.219 26.6266 28.4663 26.4904 28.8643H26.4902ZM31.3096 14.1518C32.1422 14.1518 32.8196 13.4744 32.8196 12.6418C32.8196 11.8091 32.1422 11.1317 31.3096 11.1317C30.477 11.1317 29.7996 11.8091 29.7996 12.6418C29.7996 13.4744 30.477 14.1518 31.3096 14.1518ZM27.3929 27.0939H31.4667C32.391 27.0939 33.1429 26.342 33.1429 25.4178V17.4472C33.1429 16.6083 32.415 15.8996 31.5534 15.8996C30.7297 15.8996 30.1213 16.2629 29.6387 17.0428L29.1615 17.8142C28.7741 18.4402 28.1297 18.7992 27.3935 18.7992H22.5008C22.0837 18.7992 21.7445 19.1386 21.7445 19.5556C21.7445 19.9726 22.0837 20.3119 22.5008 20.3119H28.8443L30.0004 19.6444C30.0644 19.6069 30.1352 19.5824 30.2087 19.5723C30.2822 19.5623 30.357 19.5669 30.4287 19.5858C30.5004 19.6048 30.5677 19.6378 30.6266 19.6828C30.6855 19.7279 30.735 19.7842 30.7721 19.8484C30.8092 19.9126 30.8332 19.9836 30.8427 20.0572C30.8523 20.1307 30.8472 20.2054 30.8278 20.277C30.8083 20.3486 30.7749 20.4157 30.7295 20.4743C30.684 20.5329 30.6274 20.582 30.5629 20.6186L29.5575 21.1991V24.3973C29.5575 24.5382 29.5046 24.674 29.4093 24.7778C29.314 24.8816 29.1832 24.9458 29.0428 24.9578L24.9855 25.3036C24.5815 25.3381 24.2704 25.5904 24.1532 25.9786L21.5317 34.664H23.3176L25.4258 28.5001C25.718 27.6459 26.4901 27.0939 27.3929 27.0939ZM15.7641 35.064C15.7894 35.148 15.7948 35.2368 15.7797 35.3233C15.7646 35.4098 15.7295 35.4915 15.6771 35.562C15.6248 35.6324 15.5567 35.6897 15.4783 35.7291C15.3999 35.7685 15.3133 35.7891 15.2255 35.7891H12.2803C12.163 35.7891 12.0486 35.7524 11.9532 35.6842C11.8578 35.616 11.786 35.5196 11.7481 35.4086L9.50977 28.8643C9.37357 28.4663 9.02777 28.219 8.60702 28.219H4.53326C2.9887 28.219 1.73208 26.9624 1.73208 25.4178V17.4473C1.73208 16.3415 2.45665 15.3674 3.45396 14.9678C2.62266 14.5241 2.05537 13.6481 2.05537 12.6418C2.05537 11.1889 3.23747 10.0068 4.69041 10.0068C6.14334 10.0068 7.32551 11.1889 7.32551 12.6418C7.32551 13.708 6.68862 14.6277 5.77561 15.042C6.38655 15.3106 6.90314 15.7804 7.31798 16.4509L7.79527 17.2223C7.97829 17.518 8.25884 17.6743 8.60653 17.6743H13.4992C14.5366 17.6743 15.3806 18.5183 15.3806 19.5557C15.3806 20.5931 14.5366 21.4369 13.4992 21.4369H7.56752V23.8807L11.1101 24.1827C11.9774 24.2567 12.6724 24.8202 12.9239 25.6534L15.7642 35.0639L15.7641 35.064ZM4.69034 14.1519C5.52298 14.1519 6.20044 13.4745 6.20044 12.6418C6.20044 11.8092 5.52298 11.1318 4.69034 11.1318C3.8577 11.1318 3.1803 11.8092 3.1803 12.6418C3.1803 13.4745 3.8577 14.1519 4.69034 14.1519ZM14.4682 34.6641L11.8467 25.9786C11.7296 25.5904 11.4185 25.3382 11.0145 25.3037L6.95714 24.9578C6.81674 24.9459 6.68596 24.8816 6.59065 24.7778C6.49534 24.6741 6.44245 24.5383 6.44245 24.3974V21.1992L5.43706 20.6188C5.30786 20.5442 5.2136 20.4213 5.17499 20.2772C5.13638 20.1331 5.15659 19.9796 5.23118 19.8504C5.2681 19.7864 5.31727 19.7304 5.37587 19.6854C5.43447 19.6404 5.50136 19.6074 5.57272 19.5883C5.64407 19.5692 5.71849 19.5643 5.79173 19.5739C5.86497 19.5836 5.93559 19.6076 5.99956 19.6445L7.15563 20.312H13.4992C13.9163 20.312 14.2555 19.9728 14.2555 19.5557C14.2555 19.1387 13.9163 18.7994 13.4992 18.7994H8.60646C7.87029 18.7994 7.22595 18.4404 6.83852 17.8143L6.36124 17.043C5.87862 16.263 5.2702 15.8997 4.44663 15.8997C3.58495 15.8997 2.85708 16.6084 2.85708 17.4473V25.4179C2.85708 26.3422 3.609 27.0941 4.53326 27.0941H8.60702C9.50984 27.0941 10.2819 27.646 10.5742 28.5003L12.6824 34.6642H14.4682V34.6641ZM34.4952 27.094C34.3461 27.094 34.203 27.1533 34.0975 27.2588C33.992 27.3643 33.9327 27.5073 33.9327 27.6565C33.9327 27.8057 33.992 27.9488 34.0975 28.0543C34.203 28.1597 34.3461 28.219 34.4952 28.219C34.5867 28.219 34.664 28.2963 34.664 28.3878V34.4952C34.664 34.5867 34.5866 34.664 34.4952 34.664H25.5126C25.3634 34.664 25.2204 34.7233 25.1149 34.8287C25.0094 34.9342 24.9501 35.0773 24.9501 35.2265C24.9501 35.3757 25.0094 35.5187 25.1149 35.6242C25.2204 35.7297 25.3634 35.789 25.5126 35.789H34.4952C35.2086 35.789 35.789 35.2086 35.789 34.4952V28.3878C35.789 27.6744 35.2086 27.094 34.4952 27.094ZM19.1131 34.664H18.5624V22.9526H24.4723C24.6214 22.9526 24.7645 22.8933 24.87 22.7878C24.9755 22.6824 25.0348 22.5393 25.0348 22.3901C25.0348 22.2409 24.9755 22.0978 24.87 21.9924C24.7645 21.8869 24.6214 21.8276 24.4723 21.8276H11.5276C11.3784 21.8276 11.2353 21.8869 11.1298 21.9924C11.0244 22.0978 10.9651 22.2409 10.9651 22.3901C10.9651 22.5393 11.0244 22.6824 11.1298 22.7878C11.2353 22.8933 11.3784 22.9526 11.5276 22.9526H17.4374V34.664H16.8867C16.7375 34.664 16.5944 34.7233 16.4889 34.8287C16.3834 34.9342 16.3242 35.0773 16.3242 35.2265C16.3242 35.3757 16.3834 35.5187 16.4889 35.6242C16.5944 35.7297 16.7375 35.789 16.8867 35.789H19.1131C19.2623 35.789 19.4054 35.7297 19.5109 35.6242C19.6164 35.5187 19.6756 35.3757 19.6756 35.2265C19.6756 35.0773 19.6164 34.9342 19.5109 34.8287C19.4054 34.7233 19.2623 34.664 19.1131 34.664ZM6.80752 8.50739V2.56493C6.80752 1.26696 7.86354 0.210938 9.16151 0.210938H17.516C18.8139 0.210938 19.87 1.26696 19.87 2.56493V8.50746C19.87 9.75867 18.8885 10.7847 17.6551 10.857V11.8546C17.6551 12.3874 18.0886 12.821 18.6214 12.821H22.679C22.8282 12.821 22.9712 12.8803 23.0768 12.9857L24.4168 14.3258V13.3835C24.4168 13.2343 24.4761 13.0912 24.5815 12.9857C24.687 12.8803 24.8301 12.821 24.9793 12.821H25.7512C26.2841 12.821 26.7176 12.3874 26.7176 11.8546V6.78326C26.7176 6.25043 26.2841 5.81688 25.7512 5.81688H20.889C20.7398 5.81688 20.5967 5.75762 20.4913 5.65213C20.3858 5.54664 20.3265 5.40357 20.3265 5.25438C20.3265 5.1052 20.3858 4.96212 20.4913 4.85664C20.5967 4.75115 20.7398 4.69188 20.889 4.69188H25.7512C26.9044 4.69188 27.8426 5.63006 27.8426 6.78326V11.8546C27.8426 13.0078 26.9044 13.946 25.7512 13.946H25.5418V15.6838C25.5418 15.795 25.5088 15.9038 25.447 15.9963C25.3852 16.0888 25.2973 16.1609 25.1946 16.2035C25.0918 16.246 24.9787 16.2572 24.8695 16.2355C24.7604 16.2138 24.6602 16.1602 24.5815 16.0815L22.4461 13.946H18.6214C17.4683 13.946 16.5301 13.0078 16.5301 11.8546V10.8614H12.9945L10.4639 13.392C10.3852 13.4706 10.285 13.5241 10.1759 13.5458C10.0668 13.5675 9.95373 13.5563 9.85097 13.5137C9.74821 13.4712 9.66038 13.3991 9.59856 13.3066C9.53674 13.2142 9.50371 13.1055 9.50365 12.9942V10.8614H9.16158C7.86361 10.8614 6.80759 9.80543 6.80759 8.50746L6.80752 8.50739ZM7.93252 8.50739C7.93252 9.18499 8.48384 9.73631 9.16151 9.73631H10.0661C10.2153 9.73631 10.3583 9.79558 10.4638 9.90106C10.5693 10.0066 10.6286 10.1496 10.6286 10.2988V11.6362L12.3637 9.90105C12.4693 9.79558 12.6123 9.73632 12.7615 9.73631H17.516C18.1936 9.73631 18.745 9.18499 18.745 8.50739V2.56493C18.745 1.88726 18.1936 1.33594 17.516 1.33594H9.16151C8.48384 1.33594 7.93252 1.88726 7.93252 2.56493V8.50739ZM10.2858 3.74365H16.3917C16.5409 3.74365 16.6839 3.68439 16.7894 3.5789C16.8949 3.47341 16.9542 3.33033 16.9542 3.18115C16.9542 3.03196 16.8949 2.88889 16.7894 2.7834C16.6839 2.67791 16.5409 2.61865 16.3917 2.61865H10.2858C10.1366 2.61865 9.99355 2.67791 9.88806 2.7834C9.78257 2.88889 9.7233 3.03196 9.7233 3.18115C9.7233 3.33033 9.78257 3.47341 9.88806 3.5789C9.99355 3.68439 10.1366 3.74365 10.2858 3.74365ZM10.2858 6.09863H16.3917C16.5409 6.09863 16.6839 6.03936 16.7894 5.93387C16.8949 5.82838 16.9542 5.68531 16.9542 5.53613C16.9542 5.38694 16.8949 5.24387 16.7894 5.13838C16.6839 5.03289 16.5409 4.97363 16.3917 4.97363H10.2858C10.1366 4.97363 9.99355 5.03289 9.88806 5.13838C9.78257 5.24387 9.7233 5.38694 9.7233 5.53613C9.7233 5.68531 9.78257 5.82838 9.88806 5.93387C9.99355 6.03936 10.1366 6.09863 10.2858 6.09863ZM10.2858 8.45353H16.3917C16.5409 8.45353 16.6839 8.39427 16.7894 8.28878C16.8949 8.18329 16.9542 8.04022 16.9542 7.89103C16.9542 7.74185 16.8949 7.59877 16.7894 7.49328C16.6839 7.38779 16.5409 7.32853 16.3917 7.32853H10.2858C10.1366 7.32853 9.99355 7.38779 9.88806 7.49328C9.78257 7.59877 9.7233 7.74185 9.7233 7.89103C9.7233 8.04022 9.78257 8.18329 9.88806 8.28878C9.99355 8.39427 10.1366 8.45353 10.2858 8.45353Z" fill="#002F57" stroke="white" stroke-width="0.4" mask="url(#path-1-inside-1_1226_14898)"/>
</g>
<defs>
<clipPath id="clip0_1226_14898">
<rect width="36" height="36" fill="white"/>
</clipPath>
</defs>
</svg>
