<svg width="36" height="36" viewBox="0 0 36 36" fill="none" xmlns="http://www.w3.org/2000/svg">
<path d="M0.5625 14.9249C0.5625 9.96121 3.41339 5.45172 7.78908 3.28251L7.41459 3.21775C7.26794 3.19195 7.13751 3.10906 7.05187 2.98725C6.96624 2.86544 6.9324 2.71464 6.95777 2.56792C6.98314 2.4212 7.06565 2.29052 7.18721 2.20453C7.30877 2.11854 7.45947 2.08426 7.60627 2.1092L9.92988 2.51111C10.0207 2.52683 10.1063 2.56465 10.1792 2.62124C10.252 2.67782 10.3097 2.75144 10.3474 2.8356C10.3851 2.91977 10.4015 3.01191 10.3952 3.1039C10.3888 3.1959 10.36 3.28493 10.3112 3.36316L9.18162 5.17314C9.14255 5.23585 9.09151 5.29024 9.0314 5.33321C8.97129 5.37617 8.90331 5.40687 8.83133 5.42353C8.75935 5.4402 8.68479 5.44251 8.61192 5.43033C8.53904 5.41816 8.46929 5.39174 8.40663 5.35258C8.34396 5.31348 8.2896 5.26242 8.24666 5.20231C8.20372 5.1422 8.17305 5.07421 8.15639 5.00225C8.13974 4.93028 8.13742 4.85573 8.14958 4.78287C8.16174 4.71001 8.18814 4.64025 8.22727 4.57759L8.45803 4.20782C4.36528 6.15548 1.6875 10.327 1.6875 14.9249C1.6875 15.074 1.62824 15.2171 1.52275 15.3226C1.41726 15.4281 1.27418 15.4874 1.125 15.4874C0.975816 15.4874 0.832742 15.4281 0.727252 15.3226C0.621763 15.2171 0.5625 15.074 0.5625 14.9249ZM13.5499 26.7873C8.9422 26.7873 4.78005 24.1124 2.83317 20.017L3.20259 20.2475C3.4662 20.4121 3.81312 20.3316 3.97758 20.0681C4.05656 19.9415 4.08203 19.7888 4.04839 19.6434C4.01475 19.4981 3.92476 19.3721 3.79821 19.2931L1.98823 18.1635C1.91 18.1147 1.82097 18.0859 1.72897 18.0795C1.63698 18.0732 1.54484 18.0896 1.46067 18.1273C1.37651 18.165 1.30289 18.2227 1.24631 18.2956C1.18972 18.3684 1.1519 18.454 1.13618 18.5448L0.734344 20.8684C0.720355 20.9493 0.724221 21.0322 0.745671 21.1114C0.767121 21.1906 0.805636 21.2641 0.858515 21.3269C0.911394 21.3896 0.977356 21.44 1.05178 21.4746C1.1262 21.5091 1.20727 21.527 1.28932 21.5268C1.42178 21.5267 1.54993 21.4798 1.6512 21.3944C1.75248 21.309 1.82038 21.1906 1.84296 21.0601L1.90758 20.6865C4.07573 25.0648 8.57588 27.9122 13.55 27.9122C13.6244 27.913 13.6982 27.8991 13.7672 27.8712C13.8361 27.8433 13.8989 27.802 13.9518 27.7497C14.0047 27.6974 14.0467 27.6351 14.0753 27.5664C14.104 27.4978 14.1188 27.4241 14.1187 27.3497C14.1187 27.2753 14.104 27.2017 14.0753 27.133C14.0466 27.0643 14.0046 27.0021 13.9517 26.9498C13.8988 26.8974 13.8361 26.8561 13.7671 26.8283C13.6981 26.8004 13.6243 26.7864 13.5499 26.7873ZM13.5499 3.06243C18.1467 3.06243 22.3191 5.74049 24.2669 9.83289L23.8973 9.6022C23.6336 9.43745 23.2867 9.51803 23.1223 9.78156C22.9578 10.0451 23.0381 10.3921 23.3016 10.5565L25.1116 11.6861C25.1898 11.735 25.2789 11.7639 25.3709 11.7702C25.4629 11.7766 25.5551 11.7601 25.6392 11.7224C25.7234 11.6847 25.797 11.627 25.8536 11.5541C25.9102 11.4813 25.948 11.3957 25.9637 11.3049L26.3656 8.9812C26.391 8.83419 26.357 8.68312 26.271 8.5612C26.185 8.43928 26.0541 8.3565 25.9071 8.33109C25.6011 8.27835 25.3099 8.48331 25.257 8.78952L25.1926 9.16169C24.2487 7.25214 22.8504 5.60704 21.0918 4.35055C18.8823 2.7719 16.2743 1.9375 13.5499 1.9375C13.4018 1.93916 13.2604 1.99914 13.1562 2.10445C13.0521 2.20975 12.9937 2.35187 12.9937 2.49996C12.9937 2.64806 13.0521 2.79018 13.1562 2.89548C13.2604 3.00079 13.4018 3.06077 13.5499 3.06243ZM35.4374 31.3288C35.4423 31.6567 35.3197 31.9664 35.0922 32.2009L33.6453 33.692C33.5311 33.8099 33.3943 33.9035 33.2431 33.9673C33.0919 34.0312 32.9295 34.0639 32.7653 34.0636C32.4466 34.0642 32.1403 33.9402 31.9117 33.7181L27.9042 29.8293C27.5337 29.4698 27.4403 28.9315 27.6261 28.4809L26.0856 26.969C24.7727 27.9536 23.143 28.5374 21.3795 28.5374C18.0628 28.5374 15.2193 26.4724 14.0671 23.5606H12.4587C12.3249 23.5606 12.1955 23.5129 12.0937 23.4261C11.9919 23.3393 11.9244 23.2191 11.9033 23.087L11.5836 21.0894C11.2386 20.9794 10.9035 20.8404 10.582 20.674L8.94284 21.8608C8.8345 21.9392 8.70173 21.9765 8.56837 21.9659C8.43502 21.9553 8.30981 21.8975 8.21524 21.8029L6.67202 20.2596C6.57744 20.165 6.51966 20.0398 6.50906 19.9065C6.49845 19.7731 6.53571 19.6404 6.61416 19.532L7.80089 17.8929C7.63451 17.5713 7.4956 17.2363 7.38562 16.8914L5.38791 16.5716C5.25583 16.5504 5.13561 16.4829 5.04882 16.3811C4.96203 16.2793 4.91436 16.1499 4.91435 16.0162V13.8337C4.91436 13.6999 4.96203 13.5705 5.04882 13.4687C5.13561 13.367 5.25583 13.2994 5.38791 13.2783L7.38562 12.9585C7.49563 12.6136 7.63454 12.2785 7.80089 11.957L6.61416 10.3178C6.53571 10.2095 6.49845 10.0767 6.50906 9.94338C6.51966 9.81003 6.57744 9.68483 6.67202 9.59024L8.21524 8.04695C8.30979 7.95229 8.435 7.89446 8.56837 7.88385C8.70174 7.87325 8.83452 7.91056 8.94284 7.98909L10.5819 9.17575C10.9035 9.00933 11.2386 8.87039 11.5836 8.76042L11.9033 6.76291C11.9244 6.63082 11.9919 6.51059 12.0937 6.4238C12.1955 6.33701 12.3249 6.28934 12.4587 6.28935H14.6412C14.775 6.28934 14.9044 6.33701 15.0062 6.4238C15.108 6.51059 15.1755 6.63082 15.1966 6.76291L15.5164 8.76042C15.8613 8.87044 16.1964 9.0094 16.518 9.17582L18.1571 7.98909C18.2654 7.91063 18.3982 7.87336 18.5315 7.88395C18.6649 7.89455 18.7901 7.95231 18.8847 8.04688L20.428 9.59017C20.5226 9.68477 20.5804 9.80998 20.591 9.94334C20.6016 10.0767 20.5643 10.2095 20.4858 10.3178L19.2991 11.957C19.4654 12.2785 19.6044 12.6136 19.7144 12.9585L19.8133 12.9743C20.3288 12.8698 20.8536 12.8172 21.3796 12.8174C25.7137 12.8174 29.2397 16.3434 29.2397 20.6775C29.2397 22.1779 28.8169 23.5814 28.0844 24.7754L29.6874 26.3482C29.8439 26.2753 30.014 26.2362 30.1866 26.2336C30.5125 26.2265 30.8244 26.3513 31.0588 26.579L35.0662 30.4676C35.3005 30.695 35.4324 31.0009 35.4374 31.3288ZM27.4206 25.7C27.2678 25.8836 27.1068 26.0602 26.9381 26.2293L28.3473 27.6123L28.8458 27.0985L27.4206 25.7ZM13.7179 22.4355C13.4917 21.4465 13.4586 20.4231 13.6202 19.4215C13.5968 19.4219 13.5733 19.4233 13.5499 19.4233C11.0694 19.4233 9.0514 17.4053 9.0514 14.9248C9.0514 12.4442 11.0694 10.4263 13.5499 10.4263C15.5829 10.4263 17.3139 11.7643 17.8653 13.648C18.1186 13.5208 18.3786 13.4074 18.6443 13.3084C18.5221 12.9225 18.3562 12.5517 18.1499 12.2033C18.094 12.109 18.0668 12.0003 18.0718 11.8908C18.0768 11.7812 18.1138 11.6755 18.1781 11.5866L19.2933 10.0464L18.4283 9.18145L16.8881 10.2965C16.7992 10.3609 16.6935 10.3978 16.5839 10.4028C16.4743 10.4078 16.3657 10.3807 16.2713 10.3247C15.8368 10.0668 15.3677 9.87223 14.8781 9.74697C14.7719 9.71979 14.6759 9.66214 14.6019 9.58111C14.528 9.50009 14.4794 9.39922 14.462 9.29092L14.1616 7.41414H12.9383L12.638 9.29092C12.6206 9.39922 12.572 9.50009 12.498 9.58111C12.4241 9.66214 12.3281 9.71979 12.2219 9.74697C11.7323 9.87223 11.2631 10.0668 10.8285 10.3247C10.7342 10.3806 10.6255 10.4077 10.5159 10.4027C10.4064 10.3977 10.3006 10.3608 10.2118 10.2965L8.67164 9.18145L7.80666 10.0464L8.92181 11.5866C8.98614 11.6755 9.02309 11.7812 9.0281 11.8908C9.03311 12.0004 9.00596 12.109 8.95001 12.2034C8.69214 12.6379 8.49761 13.1071 8.37232 13.5966C8.34514 13.7028 8.28749 13.7988 8.20647 13.8727C8.12544 13.9467 8.02457 13.9953 7.91627 14.0126L6.03928 14.3131V15.5363L7.9162 15.8367C8.02449 15.8541 8.12534 15.9027 8.20636 15.9766C8.28738 16.0505 8.34504 16.1465 8.37225 16.2527C8.49755 16.7422 8.69207 17.2114 8.94994 17.6459C9.00589 17.7403 9.03304 17.849 9.02803 17.9586C9.02302 18.0681 8.98607 18.1739 8.92174 18.2627L7.80659 19.8029L8.67157 20.6679L10.2118 19.5528C10.3006 19.4885 10.4064 19.4515 10.5159 19.4465C10.6255 19.4415 10.7342 19.4687 10.8285 19.5246C11.2631 19.7826 11.7322 19.9772 12.2218 20.1025C12.328 20.1297 12.424 20.1873 12.4979 20.2684C12.5719 20.3494 12.6205 20.4502 12.6378 20.5585L12.9382 22.4353H13.7179V22.4355ZM16.8567 14.2525C16.5441 12.6916 15.1758 11.5513 13.55 11.5513C11.6898 11.5513 10.1765 13.0646 10.1765 14.9248C10.1765 16.7849 11.6898 18.2983 13.55 18.2983C13.6647 18.2983 13.7796 18.2923 13.8936 18.2808C14.4209 16.6375 15.4751 15.2281 16.8567 14.2525ZM21.3796 27.4124C25.0933 27.4124 28.1147 24.391 28.1147 20.6773C28.1147 16.9636 25.0933 13.9422 21.3796 13.9422C17.6658 13.9422 14.6445 16.9636 14.6445 20.6773C14.6445 24.391 17.6659 27.4124 21.3796 27.4124ZM34.3125 31.3458C34.3125 31.3326 34.3099 31.3195 34.3048 31.3073C34.2996 31.2951 34.2921 31.2841 34.2827 31.2748L30.2752 27.3861C30.2565 27.3679 30.2312 27.3579 30.2051 27.3583H30.2034C30.1902 27.3583 30.1772 27.3609 30.165 27.366C30.1528 27.3711 30.1418 27.3786 30.1326 27.3881L28.6857 28.8792C28.6482 28.9178 28.6493 28.9845 28.6879 29.0219L32.6954 32.9107C32.734 32.9481 32.8006 32.9471 32.8381 32.9085L34.285 31.4174C34.3082 31.3934 34.3128 31.3651 34.3125 31.3458ZM27.1821 20.6773C27.1821 23.8769 24.5791 26.4799 21.3796 26.4799C18.18 26.4799 15.577 23.8768 15.577 20.6773C15.577 17.4778 18.18 14.8747 21.3796 14.8747C24.5791 14.8747 27.1821 17.4778 27.1821 20.6773ZM26.0571 20.6773C26.0571 18.0981 23.9588 15.9997 21.3796 15.9997C18.8003 15.9997 16.702 18.0981 16.702 20.6773C16.702 23.2565 18.8003 25.3549 21.3796 25.3549C23.9588 25.3549 26.0571 23.2566 26.0571 20.6773Z" fill="#002F57"/>
</svg>
