<svg width="36" height="36" viewBox="0 0 36 36" fill="none" xmlns="http://www.w3.org/2000/svg">
<path fill-rule="evenodd" clip-rule="evenodd" d="M14.4955 13.7063C14.3763 13.7063 14.2621 13.659 14.1779 13.5748C14.0936 13.4905 14.0463 13.3763 14.0463 13.2572C14.0463 13.138 14.0936 13.0238 14.1779 12.9396C14.2621 12.8553 14.3763 12.808 14.4955 12.808H23.8075C23.9266 12.808 24.0409 12.8553 24.1251 12.9396C24.2093 13.0238 24.2567 13.138 24.2567 13.2572C24.2567 13.3763 24.2093 13.4905 24.1251 13.5748C24.0409 13.659 23.9266 13.7063 23.8075 13.7063H14.4955ZM12.1907 13.7063C12.0716 13.7063 11.9573 13.659 11.8731 13.5748C11.7889 13.4905 11.7415 13.3763 11.7415 13.2572C11.7415 13.138 11.7889 13.0238 11.8731 12.9396C11.9573 12.8553 12.0716 12.808 12.1907 12.808H12.2994C12.4185 12.808 12.5328 12.8553 12.617 12.9396C12.7012 13.0238 12.7485 13.138 12.7485 13.2572C12.7485 13.3763 12.7012 13.4905 12.617 13.5748C12.5328 13.659 12.4185 13.7063 12.2994 13.7063H12.1907ZM14.4955 16.2511C14.3763 16.2511 14.2621 16.2038 14.1779 16.1195C14.0936 16.0353 14.0463 15.921 14.0463 15.8019C14.0463 15.6828 14.0936 15.5686 14.1779 15.4843C14.2621 15.4001 14.3763 15.3528 14.4955 15.3528H23.8075C23.9266 15.3528 24.0409 15.4001 24.1251 15.4843C24.2093 15.5686 24.2567 15.6828 24.2567 15.8019C24.2567 15.921 24.2093 16.0353 24.1251 16.1195C24.0409 16.2038 23.9266 16.2511 23.8075 16.2511H14.4955ZM12.1907 16.2511C12.0716 16.2511 11.9573 16.2038 11.8731 16.1195C11.7889 16.0353 11.7415 15.921 11.7415 15.8019C11.7415 15.6828 11.7889 15.5686 11.8731 15.4843C11.9573 15.4001 12.0716 15.3528 12.1907 15.3528H12.2994C12.4185 15.3528 12.5328 15.4001 12.617 15.4843C12.7012 15.5686 12.7485 15.6828 12.7485 15.8019C12.7485 15.921 12.7012 16.0353 12.617 16.1195C12.5328 16.2038 12.4185 16.2511 12.2994 16.2511H12.1907ZM14.4955 11.1616C14.3763 11.1616 14.2621 11.1143 14.1779 11.03C14.0936 10.9458 14.0463 10.8315 14.0463 10.7124C14.0463 10.5933 14.0936 10.4791 14.1779 10.3948C14.2621 10.3106 14.3763 10.2633 14.4955 10.2633H23.8075C23.9266 10.2633 24.0409 10.3106 24.1251 10.3948C24.2093 10.4791 24.2567 10.5933 24.2567 10.7124C24.2567 10.8315 24.2093 10.9458 24.1251 11.03C24.0409 11.1143 23.9266 11.1616 23.8075 11.1616H14.4955ZM12.1907 11.1616C12.0716 11.1616 11.9573 11.1143 11.8731 11.03C11.7889 10.9458 11.7415 10.8315 11.7415 10.7124C11.7415 10.5933 11.7889 10.4791 11.8731 10.3948C11.9573 10.3106 12.0716 10.2633 12.1907 10.2633H12.2994C12.4185 10.2633 12.5328 10.3106 12.617 10.3948C12.7012 10.4791 12.7485 10.5933 12.7485 10.7124C12.7485 10.8315 12.7012 10.9458 12.617 11.03C12.5328 11.1143 12.4185 11.1616 12.2994 11.1616H12.1907ZM23.8035 2.93579V4.81623H25.6839L23.8035 2.93579ZM12.3997 27.9845C12.4409 27.4285 11.4931 27.2956 11.1385 27.7368L10.5142 28.5136C10.212 28.8897 10.4878 29.3548 10.8405 29.5142C10.9376 29.5581 11.0397 29.5766 11.1342 29.5591L12.3997 27.9845ZM11.7628 30.2073L13.172 28.4539C13.6298 27.8841 14.4559 28.5959 14.0289 29.1191L12.5959 30.9024C12.1325 31.4791 11.3094 30.7497 11.7405 30.2353C11.7483 30.2262 11.7557 30.2168 11.7628 30.2072V30.2073ZM15.0588 32.5588C15.0341 32.9625 15.8292 33.3907 16.2301 32.8919L16.5006 32.5552C16.953 31.9923 16.3481 31.4232 15.958 31.44L15.0588 32.5588ZM14.2859 32.0903C14.2897 32.0854 14.2935 32.0806 14.2974 32.0759L15.3584 30.7557C15.665 30.3742 15.3937 29.947 15.039 29.7981C14.9121 29.7448 14.7745 29.731 14.651 29.7756L13.2941 31.4639C13.0621 31.7526 13.1452 32.0483 13.3878 32.2405L13.3871 32.2413C13.635 32.437 13.9896 32.4587 14.2345 32.1541L14.2859 32.0903ZM28.1045 25.9165C28.1118 25.9325 28.1183 25.949 28.1237 25.966L28.675 27.3834C28.698 27.4425 28.7722 27.4753 28.8332 27.4516L31.7287 26.3255C31.7878 26.3025 31.8206 26.2281 31.7969 26.1672L28.2873 17.1432C28.2643 17.0841 28.1901 17.0513 28.1291 17.0751L25.2336 18.2011C25.1745 18.2241 25.1416 18.2984 25.1654 18.3593L28.1044 25.9166L28.1045 25.9165ZM7.68626 26.402L7.26888 27.3505C7.26253 27.3651 7.25336 27.3783 7.2419 27.3893C7.23043 27.4004 7.2169 27.409 7.20208 27.4148C7.18726 27.4206 7.17144 27.4234 7.15554 27.423C7.13963 27.4226 7.12396 27.4191 7.10941 27.4127L4.26577 26.1616C4.25118 26.1552 4.23799 26.1461 4.22696 26.1346C4.21593 26.1231 4.20728 26.1096 4.20151 26.0948C4.19574 26.08 4.19296 26.0642 4.19333 26.0483C4.1937 26.0324 4.19722 26.0167 4.20368 26.0022L8.10307 17.1395C8.10941 17.1249 8.11858 17.1117 8.13004 17.1007C8.1415 17.0897 8.15503 17.081 8.16984 17.0752C8.18466 17.0695 8.20047 17.0667 8.21637 17.0671C8.23227 17.0674 8.24794 17.0709 8.26247 17.0774L11.1065 18.3287C11.121 18.3351 11.1341 18.3443 11.1451 18.3557C11.1561 18.3672 11.1647 18.3807 11.1704 18.3955C11.1762 18.4103 11.1789 18.4261 11.1786 18.4419C11.1782 18.4578 11.1747 18.4734 11.1682 18.4879L7.70658 26.3558C7.69896 26.3708 7.69213 26.3862 7.68626 26.402ZM16.1808 20.8774L17.3568 19.7737C17.9557 19.2498 18.0877 19.2235 18.9351 19.3403C20.0971 19.5006 21.6924 19.8336 22.8413 19.9231C23.604 19.9825 24.1792 19.9371 24.7498 19.7608L27.1005 25.8049C25.8738 26.2757 26.3525 27.258 24.7718 28.083L18.4349 22.9901C18.1652 22.7612 17.8989 22.6617 17.6622 22.6367C17.2771 22.5961 16.9665 22.7628 16.8172 22.9093C16.5956 23.1264 16.5514 23.3015 16.4759 23.6004C16.3439 24.1228 16.3947 24.439 16.1458 25.033C15.9805 25.4274 15.6352 25.8984 15.1946 25.9763C14.688 26.0658 14.5935 25.9898 14.5739 25.4076L14.5046 23.0788C14.4995 22.5431 14.5078 22.5663 14.9867 22.0729C15.365 21.6844 15.748 21.3005 16.1356 20.9213C16.1516 20.9077 16.1666 20.893 16.1806 20.8773L16.1808 20.8774ZM23.8237 31.1395C25.1622 31.6913 26.5959 29.8187 25.5124 28.695C26.9141 27.8316 26.6822 26.9753 27.4287 26.649L27.8399 27.7063C28.0439 28.2309 28.6329 28.4902 29.1561 28.2868L32.0516 27.1607C32.5763 26.9566 32.8354 26.3674 32.6321 25.8444L29.1225 16.8204C28.9185 16.2957 28.3293 16.0366 27.8063 16.24L27.2173 16.469V5.26531C27.2174 5.20633 27.2058 5.14791 27.1832 5.09342C27.1607 5.03892 27.1275 4.98943 27.0858 4.94778L23.6746 1.53664C23.6329 1.49405 23.583 1.46023 23.528 1.43716C23.473 1.4141 23.414 1.40226 23.3543 1.40234H9.22997C9.11085 1.40234 8.9966 1.44967 8.91237 1.5339C8.82813 1.61813 8.78081 1.73238 8.78081 1.8515V16.3253L8.62381 16.2563C8.11095 16.0306 7.50675 16.267 7.28189 16.778L3.3825 25.6407C3.1568 26.1536 3.39326 26.7577 3.90429 26.9826L6.74794 28.2337C7.26087 28.4594 7.86506 28.223 8.08992 27.7119L8.38003 27.0526C8.60616 27.0941 8.81759 27.1582 8.98352 27.2918C9.21415 27.4774 9.4312 27.8301 9.64622 28.2097C9.17182 29.1147 9.81553 30.1883 10.7229 30.42C10.6309 31.2819 11.4123 32.0516 12.2718 32.0126C12.3307 32.3788 12.5421 32.7142 12.8298 32.9422L12.8305 32.9414C13.237 33.2721 13.8198 33.3909 14.3198 33.1865C14.7545 33.9726 15.9118 34.3021 16.6737 33.7061L17.3036 34.231C18.3362 35.0915 19.5646 34.2754 19.9938 33.41C20.7967 33.5698 21.5356 32.9621 21.7269 32.2117C22.608 32.633 23.5894 32.0084 23.8237 31.1394V31.1395ZM23.2787 29.6233L21.4294 28.1266C21.3372 28.0529 21.2195 28.0185 21.102 28.0311C20.9846 28.0437 20.8768 28.1021 20.8023 28.1938C20.7278 28.2854 20.6925 28.4028 20.7041 28.5204C20.7158 28.638 20.7734 28.7461 20.8644 28.8214L22.8024 30.3898C23.3184 30.8432 22.5626 31.7822 21.9749 31.3172L19.8919 29.6513C19.7991 29.5786 19.6814 29.5453 19.5643 29.5588C19.4472 29.5722 19.3401 29.6313 19.2663 29.7231C19.1924 29.815 19.1577 29.9323 19.1697 30.0495C19.1818 30.1668 19.2395 30.2746 19.3304 30.3496L20.6792 31.4336C21.2106 31.8606 20.5533 32.8955 19.8903 32.3938L18.7581 31.537C18.6631 31.466 18.5439 31.4355 18.4265 31.4522C18.3091 31.4689 18.2031 31.5314 18.1317 31.626C18.0602 31.7207 18.0292 31.8397 18.0453 31.9572C18.0614 32.0747 18.1234 32.181 18.2177 32.2529L19.3499 33.1096C19.4085 33.1536 19.1918 33.0139 19.1801 33.0359C18.9685 33.4303 18.3555 33.9434 17.8755 33.5435L17.2627 33.0328C17.955 32.0655 17.3383 30.8901 16.3781 30.6036C16.4959 29.7838 15.8423 29.0084 15.0502 28.871C15.1031 27.9135 14.099 27.1194 13.1784 27.3978C12.7203 26.4243 11.1657 26.2727 10.4402 27.1754L10.2306 27.4362C9.83522 26.7911 9.46207 26.3865 8.74903 26.214L11.5144 19.9288C12.6947 20.5897 13.4373 20.8016 14.8414 20.9435C14.6748 21.1108 14.5092 21.2791 14.3446 21.4484C13.7189 22.0931 13.6021 22.2589 13.6099 23.0858C13.6161 23.751 13.6562 24.8229 13.6791 25.4356C13.7175 26.4962 14.2225 27.0597 15.3491 26.8605C15.5962 26.8168 15.8398 26.7067 16.0624 26.551C16.7009 26.1044 17.032 25.4013 17.1929 24.6734C17.2628 24.3571 17.2815 24.0734 17.3379 23.8505C17.405 23.5853 17.4061 23.5106 17.5709 23.528C17.6649 23.5379 17.7445 23.5835 17.8696 23.6854L24.7957 29.2517C25.3604 29.7055 24.55 30.6523 24.0189 30.2224L23.2786 29.6233H23.2787ZM6.56801 25.6402L6.61118 25.5656C6.67073 25.4628 6.687 25.3405 6.65639 25.2256C6.62579 25.1108 6.55082 25.0129 6.44799 24.9533C6.34515 24.8938 6.22287 24.8775 6.10805 24.9081C5.99322 24.9387 5.89526 25.0137 5.8357 25.1165L5.79253 25.1911C5.76304 25.242 5.74387 25.2982 5.73612 25.3566C5.72836 25.4149 5.73217 25.4742 5.74732 25.531C5.76248 25.5879 5.78868 25.6412 5.82444 25.6879C5.8602 25.7347 5.90481 25.7739 5.95573 25.8034C6.00665 25.8329 6.06287 25.852 6.1212 25.8598C6.17953 25.8676 6.23881 25.8637 6.29567 25.8486C6.35252 25.8334 6.40584 25.8072 6.45256 25.7715C6.49929 25.7357 6.53852 25.6911 6.56801 25.6402ZM29.9089 25.6402C29.8494 25.743 29.7514 25.8179 29.6366 25.8486C29.5218 25.8792 29.3995 25.8629 29.2967 25.8034C29.1939 25.7438 29.1189 25.6458 29.0883 25.531C29.0577 25.4162 29.0739 25.2939 29.1335 25.1911L29.1766 25.1165C29.2362 25.0137 29.3342 24.9387 29.449 24.9081C29.5638 24.8775 29.6861 24.8938 29.7889 24.9533C29.8917 25.0129 29.9667 25.1108 29.9973 25.2257C30.0279 25.3405 30.0116 25.4627 29.9521 25.5656L29.9089 25.6402ZM12.6915 2.30066H14.7897V4.90988L14.0038 4.33888C13.9259 4.28245 13.8319 4.25255 13.7358 4.25357C13.6396 4.2546 13.5463 4.2865 13.4697 4.34457L12.6915 4.90995V2.30066ZM15.688 2.30066V5.79062C15.688 6.14921 15.2749 6.38455 14.9559 6.13944L13.7406 5.25645L12.5055 6.15378C12.2059 6.37112 11.7935 6.14612 11.7938 5.79062H11.7932V2.30066H9.67913V16.7206L11.4445 17.4973C11.9774 17.7144 12.2259 18.351 11.9793 18.8718L11.877 19.1044C13.2668 19.8912 13.9677 19.9808 15.6785 20.1161L16.7673 19.0999C17.5781 18.3906 17.9527 18.3005 19.0544 18.4525C20.2117 18.6121 21.7979 18.9417 22.908 19.0283C23.528 19.0767 23.9842 19.0483 24.4238 18.9225C24.2875 18.5722 24.1716 18.304 24.3474 17.9045C24.4013 17.7821 24.4788 17.6715 24.5755 17.5791C24.6721 17.4867 24.7861 17.4142 24.9109 17.366L26.3191 16.8183V5.71454H23.3543C23.2352 5.71454 23.121 5.66722 23.0367 5.58298C22.9525 5.49875 22.9052 5.38451 22.9052 5.26538V2.30066H15.6881H15.688Z" fill="#002F57"/>
</svg>
